<svg xmlns="http://www.w3.org/2000/svg" xmlns:xlink="http://www.w3.org/1999/xlink" width="500" zoomAndPan="magnify" viewBox="0 0 375 374.999991" height="500" preserveAspectRatio="xMidYMid meet" version="1.0"><defs><g/><clipPath id="d52d5944cc"><path d="M 109 70 L 254 70 L 254 236 L 109 236 Z M 109 70 " clip-rule="nonzero"/></clipPath><clipPath id="737b0d6589"><path d="M 268.648438 71.183594 L 252.476562 261.75 L 100.773438 248.871094 L 116.945312 58.308594 Z M 268.648438 71.183594 " clip-rule="nonzero"/></clipPath><clipPath id="08eb1c00bf"><path d="M 268.648438 71.183594 L 252.476562 261.75 L 100.773438 248.871094 L 116.945312 58.308594 Z M 268.648438 71.183594 " clip-rule="nonzero"/></clipPath><clipPath id="397c3930f4"><path d="M 131 79 L 239 79 L 239 250 L 131 250 Z M 131 79 " clip-rule="nonzero"/></clipPath><clipPath id="ef273789a0"><path d="M 130.960938 56.300781 L 244.902344 59.996094 L 238.726562 250.394531 L 124.789062 246.699219 Z M 130.960938 56.300781 " clip-rule="nonzero"/></clipPath><clipPath id="77ddf30ffb"><path d="M 130.960938 56.300781 L 244.902344 59.996094 L 238.726562 250.394531 L 124.789062 246.699219 Z M 130.960938 56.300781 " clip-rule="nonzero"/></clipPath><clipPath id="df543a4357"><path d="M 162 58 L 237 58 L 237 145 L 162 145 Z M 162 58 " clip-rule="nonzero"/></clipPath><clipPath id="bafd9e2662"><path d="M 130.960938 56.300781 L 244.902344 59.996094 L 238.726562 250.394531 L 124.789062 246.699219 Z M 130.960938 56.300781 " clip-rule="nonzero"/></clipPath><clipPath id="c60b9bf168"><path d="M 130.960938 56.300781 L 244.902344 59.996094 L 238.726562 250.394531 L 124.789062 246.699219 Z M 130.960938 56.300781 " clip-rule="nonzero"/></clipPath></defs><rect x="-37.5" width="450" fill="#ffffff" y="-37.499999" height="449.999989" fill-opacity="1"/><rect x="-37.5" width="450" fill="#ffffff" y="-37.499999" height="449.999989" fill-opacity="1"/><rect x="-37.5" width="450" fill="#f8f6f3" y="-37.499999" height="449.999989" fill-opacity="1"/><g clip-path="url(#d52d5944cc)"><g clip-path="url(#737b0d6589)"><g clip-path="url(#08eb1c00bf)"><path fill="#ebdcc7" d="M 109.4375 149.054688 C 112.335938 113.589844 134.433594 75.109375 166.996094 71.238281 C 209.652344 66.171875 253.96875 132.230469 253.679688 169.417969 C 253.007812 254.460938 155.222656 253.496094 117.300781 190.585938 C 110.550781 179.386719 108.171875 164.507812 109.4375 149.054688 Z M 109.4375 149.054688 " fill-opacity="1" fill-rule="nonzero"/></g></g></g><g clip-path="url(#397c3930f4)"><g clip-path="url(#ef273789a0)"><g clip-path="url(#77ddf30ffb)"><path fill="#000000" d="M 220.164062 185.914062 C 209.144531 170.886719 208.105469 159.363281 207.988281 148.851562 C 207.925781 143.535156 209.3125 137.773438 212.097656 131.722656 C 212.964844 131.851562 213.917969 131.914062 214.941406 131.914062 C 220.890625 131.914062 224.453125 123.632812 227.316406 116.976562 C 227.707031 116.066406 228.109375 115.128906 228.488281 114.285156 C 230.300781 110.269531 230.136719 105.71875 228.070312 102.960938 C 226.582031 100.96875 224.230469 100.082031 221.460938 100.464844 C 215.039062 101.351562 212.054688 110.875 210.085938 117.179688 L 210.074219 117.21875 C 209.78125 118.144531 209.507812 119.019531 209.253906 119.757812 C 208.972656 120.582031 208.648438 121.617188 208.269531 122.820312 C 206.1875 129.484375 202.308594 141.878906 195.863281 147.445312 C 188.347656 153.933594 155.675781 156.0625 147.488281 154.429688 C 141.335938 153.199219 137.738281 146.613281 136.792969 134.847656 C 136.703125 133.699219 136.792969 132.589844 137.078125 131.546875 C 140.410156 135.824219 146.234375 140.160156 155.289062 137.171875 C 158.050781 136.261719 159.320312 135.300781 159.164062 134.234375 C 158.886719 132.300781 153.609375 131.304688 151.972656 131.25 C 150.011719 131.1875 144.539062 130.777344 142.53125 130.617188 C 143.121094 129.902344 144.644531 128.699219 148.070312 129.09375 C 153.320312 129.703125 155.886719 130.488281 162.742188 134.511719 C 163.441406 135.007812 163.777344 134.773438 163.917969 134.59375 C 164.554688 133.757812 162.355469 131.339844 159.886719 129.304688 C 159.066406 128.628906 158.292969 127.957031 157.550781 127.308594 L 157.515625 127.28125 C 154.375 124.546875 151.890625 122.390625 149.554688 123.339844 C 148 123.972656 147.460938 123.652344 146.886719 123.308594 C 146.570312 123.121094 146.214844 122.910156 145.722656 122.894531 C 144.847656 122.863281 141.378906 124.1875 138.917969 126.761719 C 138.027344 127.695312 137.328125 128.707031 136.835938 129.777344 C 133.003906 123.917969 130.164062 109.875 133.84375 103.152344 C 135.207031 100.660156 135.980469 98.734375 136.335938 96.949219 C 138.457031 98.195312 141.253906 99.148438 143.355469 99.328125 C 145.527344 99.515625 147.324219 98.828125 148.777344 98.261719 C 149.992188 97.796875 150.945312 97.425781 151.546875 97.820312 C 151.667969 97.902344 151.730469 98.023438 151.746094 98.21875 C 151.851562 99.777344 148.945312 103.730469 145.53125 106.6875 C 142.097656 109.65625 142.390625 111.023438 142.796875 112.917969 C 142.875 113.277344 142.957031 113.652344 143.011719 114.058594 C 143.328125 116.34375 144.996094 118.183594 145.921875 118.265625 C 146.300781 118.300781 146.597656 118.09375 146.722656 117.722656 C 146.839844 117.355469 146.816406 116.898438 146.765625 116.480469 C 147.921875 117.828125 148.820312 117.953125 150.050781 118.125 C 150.25 118.15625 150.46875 118.183594 150.695312 118.21875 C 151.882812 118.414062 152.90625 118.097656 153.1875 117.445312 C 153.316406 117.160156 153.394531 116.589844 152.574219 115.957031 C 152.175781 115.648438 152.128906 115.460938 152.144531 115.417969 C 152.1875 115.285156 152.660156 115.050781 153.589844 115.058594 C 154.636719 115.058594 155.929688 115.730469 156.457031 116.527344 C 156.722656 116.925781 156.769531 117.320312 156.613281 117.707031 C 156.292969 118.472656 156.625 119.234375 157.5 119.738281 C 158.789062 120.472656 160.917969 120.398438 161.898438 119.101562 C 164.777344 114.722656 159.066406 109.730469 158.824219 109.515625 L 158.71875 109.421875 L 158.175781 110.054688 L 158.277344 110.148438 C 158.332031 110.195312 163.679688 114.871094 161.21875 118.617188 C 160.507812 119.550781 158.910156 119.578125 157.917969 119.011719 C 157.574219 118.808594 157.195312 118.480469 157.386719 118.027344 C 157.65625 117.378906 157.574219 116.703125 157.15625 116.070312 C 156.390625 114.917969 154.746094 114.230469 153.597656 114.230469 C 152.386719 114.21875 151.566406 114.554688 151.359375 115.148438 C 151.242188 115.476562 151.273438 116.003906 152.066406 116.617188 C 152.367188 116.851562 152.460938 117.03125 152.425781 117.113281 C 152.335938 117.320312 151.714844 117.542969 150.832031 117.394531 C 150.605469 117.359375 150.394531 117.332031 150.171875 117.296875 C 148.964844 117.128906 148.296875 117.035156 147.28125 115.773438 C 146.867188 115.257812 146.539062 114.910156 146.15625 115.078125 C 145.769531 115.246094 145.828125 115.679688 145.90625 116.230469 C 145.957031 116.597656 146.023438 117.089844 145.953125 117.410156 C 145.464844 117.261719 144.125 115.84375 143.859375 113.929688 C 143.800781 113.496094 143.71875 113.113281 143.636719 112.726562 C 143.277344 111.054688 143.039062 109.945312 146.09375 107.300781 C 149.328125 104.507812 152.734375 100.210938 152.59375 98.148438 C 152.566406 97.691406 152.363281 97.328125 152.019531 97.101562 C 151.0625 96.46875 149.933594 96.910156 148.488281 97.46875 C 147.128906 97.992188 145.433594 98.648438 143.445312 98.480469 C 141.382812 98.300781 138.539062 97.300781 136.492188 96.039062 C 136.628906 94.925781 136.609375 93.820312 136.429688 92.484375 C 137.433594 92.558594 138.921875 92.628906 140.699219 92.425781 C 145.441406 91.875 149.253906 92.355469 152.449219 96.46875 C 152.652344 96.707031 152.914062 96.699219 153.078125 96.617188 C 154.035156 96.136719 153.957031 89.273438 153.464844 87.171875 C 152.773438 84.25 150.023438 81.039062 145.441406 80.453125 L 144.617188 80.34375 C 141.472656 79.921875 137.160156 79.34375 135.191406 81.445312 C 134.199219 82.503906 133.914062 84.125 134.347656 86.25 C 134.519531 87.109375 134.6875 87.890625 134.84375 88.625 L 134.851562 88.683594 C 135.078125 89.746094 135.285156 90.675781 135.441406 91.550781 L 135.382812 91.542969 C 134.238281 91.421875 133.550781 91.347656 133.136719 91.714844 C 132.953125 91.875 132.851562 92.109375 132.851562 92.351562 C 132.730469 93.109375 132.988281 93.894531 133.621094 94.695312 C 134.09375 95.292969 134.757812 95.882812 135.597656 96.457031 C 135.300781 98.222656 134.535156 100.164062 133.125 102.734375 C 129.253906 109.820312 132.390625 124.890625 136.433594 130.632812 L 136.476562 130.695312 C 136.027344 132.003906 135.859375 133.417969 135.976562 134.894531 C 136.960938 147.078125 140.78125 153.914062 147.34375 155.222656 C 155.632812 156.882812 188.757812 154.683594 196.429688 148.054688 C 200.390625 144.632812 203.914062 138.351562 207.199219 128.847656 C 207.214844 128.90625 207.234375 128.957031 207.253906 129.011719 C 207.707031 130.1875 209.125 131.085938 211.261719 131.539062 C 208.484375 137.636719 207.105469 143.449219 207.164062 148.824219 C 207.285156 159.472656 208.339844 171.144531 219.503906 186.371094 C 229.914062 200.574219 237.734375 224.945312 237.921875 243.546875 C 236.738281 239.152344 233.980469 230.011719 229.5 221.070312 C 221.105469 204.320312 210.433594 195.648438 198.648438 195.964844 C 190.019531 196.207031 182.558594 198.632812 176.476562 203.175781 C 175.046875 200.367188 173 197.992188 170.390625 196.121094 L 146.589844 179.042969 L 146.472656 178.964844 L 145.988281 179.644531 L 169.90625 196.800781 C 172.449219 198.625 174.429688 200.945312 175.800781 203.691406 C 170.363281 207.960938 166.171875 213.855469 163.335938 221.21875 C 160.859375 227.640625 159.535156 234.992188 159.496094 242.480469 C 159.484375 245.695312 160.265625 247.496094 161.828125 247.824219 C 161.960938 247.851562 162.097656 247.871094 162.242188 247.875 C 165.519531 247.980469 170.878906 241.578125 174.6875 232.980469 C 176.980469 227.820312 181.757812 214.683594 176.855469 203.953125 C 182.832031 199.445312 190.175781 197.042969 198.679688 196.808594 C 213.132812 196.40625 223.011719 209.980469 228.757812 221.449219 C 235.035156 233.964844 237.867188 246.707031 237.898438 246.835938 L 238.59375 249.996094 L 238.726562 246.761719 C 239.460938 227.871094 231.316406 201.128906 220.164062 185.914062 Z M 213.542969 128.792969 L 213.773438 128.34375 C 213.898438 128.09375 214.03125 127.816406 214.167969 127.527344 C 215.136719 125.472656 216.464844 122.667969 219.792969 122.777344 C 219.84375 122.777344 219.898438 122.777344 219.949219 122.78125 C 221.875 122.84375 223.542969 121.75 224.429688 119.84375 C 225.347656 117.871094 225.125 115.570312 223.886719 114.257812 C 222.550781 112.828125 220.164062 111.523438 217.859375 111.824219 C 216.285156 112.03125 215.015625 112.945312 214.183594 114.480469 C 213.359375 116.003906 213.117188 117.207031 212.882812 118.375 C 212.503906 120.242188 212.179688 121.859375 209.367188 124.367188 C 208.976562 124.710938 208.636719 125.054688 208.347656 125.398438 C 208.601562 124.597656 208.835938 123.84375 209.054688 123.152344 L 209.074219 123.085938 C 209.429688 121.945312 209.769531 120.863281 210.046875 120.039062 C 210.304688 119.28125 210.585938 118.386719 210.882812 117.441406 C 212.792969 111.339844 215.675781 102.117188 221.578125 101.304688 C 224.066406 100.960938 226.082031 101.710938 227.402344 103.472656 C 229.292969 105.992188 229.425781 110.207031 227.730469 113.953125 C 227.339844 114.816406 226.9375 115.753906 226.550781 116.660156 C 223.785156 123.089844 220.34375 131.089844 214.9375 131.089844 C 214.058594 131.089844 213.230469 131.042969 212.46875 130.945312 C 212.898438 130.039062 213.269531 129.324219 213.542969 128.792969 Z M 209.921875 124.988281 C 212.945312 122.296875 213.308594 120.46875 213.703125 118.535156 C 213.925781 117.429688 214.152344 116.285156 214.917969 114.875 C 215.625 113.566406 216.652344 112.820312 217.964844 112.648438 C 218.203125 112.617188 218.445312 112.605469 218.695312 112.613281 C 220.605469 112.675781 222.355469 113.847656 223.277344 114.820312 C 224.285156 115.894531 224.445312 117.8125 223.671875 119.484375 C 222.9375 121.074219 221.558594 121.992188 219.984375 121.941406 L 219.800781 121.9375 C 215.945312 121.8125 214.421875 125.03125 213.410156 127.1875 C 213.277344 127.464844 213.152344 127.730469 213.035156 127.964844 L 212.808594 128.40625 C 212.523438 128.953125 212.101562 129.78125 211.617188 130.789062 C 209.660156 130.40625 208.386719 129.683594 208.027344 128.742188 C 207.636719 127.738281 208.292969 126.4375 209.921875 124.988281 Z M 145.695312 123.734375 C 145.96875 123.742188 146.171875 123.863281 146.457031 124.03125 C 147.113281 124.417969 147.925781 124.902344 149.863281 124.117188 C 151.726562 123.367188 154.035156 125.371094 156.960938 127.914062 L 157.011719 127.953125 C 157.757812 128.601562 158.527344 129.273438 159.351562 129.949219 C 161.464844 131.683594 162.53125 132.96875 162.964844 133.679688 C 156.117188 129.679688 153.492188 128.886719 148.164062 128.269531 C 142.765625 127.636719 141.46875 130.695312 141.421875 130.828125 L 141.207031 131.351562 L 141.773438 131.398438 C 141.847656 131.40625 149.527344 132.007812 151.945312 132.085938 C 153.953125 132.152344 158.175781 133.246094 158.339844 134.355469 C 158.363281 134.507812 158.304688 135.308594 155.03125 136.386719 C 146.175781 139.304688 140.566406 134.859375 137.398438 130.589844 C 137.859375 129.429688 138.570312 128.335938 139.523438 127.34375 C 141.957031 124.796875 145.152344 123.714844 145.695312 123.734375 Z M 135.140625 86.109375 C 134.769531 84.257812 134.984375 82.882812 135.78125 82.035156 C 137.460938 80.25 141.523438 80.792969 144.496094 81.195312 L 145.3125 81.304688 C 149.5 81.839844 152.007812 84.742188 152.632812 87.390625 C 153.125 89.476562 153.003906 93.996094 152.71875 95.527344 C 150.480469 92.859375 147.738281 91.558594 144.113281 91.441406 C 143.074219 91.40625 141.949219 91.464844 140.582031 91.628906 C 138.789062 91.835938 137.347656 91.761719 136.277344 91.664062 C 136.113281 90.703125 135.886719 89.652344 135.648438 88.535156 L 135.515625 88.566406 L 135.648438 88.523438 C 135.488281 87.78125 135.320312 86.984375 135.140625 86.109375 Z M 134.253906 94.210938 C 133.769531 93.59375 133.574219 93.019531 133.660156 92.449219 C 133.664062 92.386719 133.675781 92.367188 133.675781 92.367188 C 133.695312 92.351562 133.792969 92.292969 134.207031 92.304688 C 134.496094 92.316406 134.867188 92.355469 135.285156 92.394531 L 135.566406 92.425781 C 135.742188 93.613281 135.78125 94.585938 135.699219 95.542969 C 135.089844 95.105469 134.601562 94.65625 134.253906 94.210938 Z M 173.902344 232.675781 C 170.1875 241.050781 164.722656 247.632812 161.980469 247.042969 C 160.878906 246.808594 160.300781 245.242188 160.316406 242.515625 C 160.394531 226.535156 166.308594 212.347656 176.152344 204.515625 C 180.78125 214.914062 176.125 227.65625 173.902344 232.675781 Z M 173.902344 232.675781 " fill-opacity="1" fill-rule="nonzero"/></g></g></g><g clip-path="url(#df543a4357)"><g clip-path="url(#bafd9e2662)"><g clip-path="url(#c60b9bf168)"><path fill="#000000" d="M 234.167969 76.511719 L 234.054688 76.65625 L 234.167969 76.511719 C 233.550781 76.050781 232.867188 75.53125 232.238281 74.863281 C 231.472656 74.046875 230.96875 72.878906 230.441406 71.648438 C 229.253906 68.882812 227.777344 65.441406 222.425781 63.628906 C 220.933594 63.125 219.429688 63.242188 217.957031 63.972656 C 217.496094 64.203125 217.03125 64.5 216.5625 64.855469 C 216 63.097656 215.175781 61.953125 214.046875 61.371094 C 211.863281 60.246094 209.054688 61.371094 205.796875 62.671875 C 203.695312 63.511719 201.523438 64.375 199.34375 64.699219 C 195.089844 65.328125 194 64.207031 192.347656 62.519531 C 191.261719 61.398438 189.902344 60.007812 187.296875 58.84375 C 185.535156 58.054688 183.917969 58.09375 182.488281 58.960938 C 180.183594 60.359375 178.390625 64.074219 177.300781 69.703125 C 176.589844 69.441406 175.828125 69.164062 174.992188 68.859375 L 174.941406 68.84375 C 173.207031 68.207031 171.171875 67.460938 168.691406 66.546875 C 165.964844 65.539062 164.175781 65.578125 163.222656 66.660156 C 160.898438 69.28125 165.050781 77.339844 167.277344 81.660156 L 167.671875 82.425781 C 168.832031 84.707031 168.375 86.316406 167.972656 87.738281 C 167.550781 89.214844 167.117188 90.742188 168.945312 92.402344 C 171.75 94.941406 183.144531 97.835938 187.039062 98.769531 C 186.570312 99.324219 186.019531 99.933594 185.394531 100.628906 C 182.308594 104.074219 177.636719 109.273438 172.628906 117.976562 C 167.488281 126.910156 170.144531 130.363281 173.625 133.351562 L 173.425781 137.398438 C 173.289062 140.210938 175.699219 142.949219 177.484375 143.839844 C 177.933594 144.066406 178.359375 144.1875 178.746094 144.199219 C 179.164062 144.210938 179.511719 144.101562 179.796875 143.867188 C 180.566406 143.226562 180.644531 141.835938 180.03125 139.71875 C 179.222656 136.902344 177.136719 135.171875 175.117188 133.5 C 174.917969 133.332031 174.71875 133.164062 174.515625 132.996094 C 175.074219 121.152344 176.6875 112.140625 182.714844 106.636719 C 185.597656 104.003906 187.21875 101.351562 188.410156 99.085938 L 188.414062 99.085938 L 188.546875 98.832031 C 188.863281 98.222656 189.164062 97.613281 189.464844 97.007812 C 192.808594 99.078125 196.726562 100.207031 201.117188 100.351562 C 207.515625 100.558594 213.683594 98.667969 217.730469 97.039062 C 226.308594 93.601562 231.621094 87.269531 234.871094 82.808594 C 237.582031 79.074219 236 77.886719 234.167969 76.511719 Z M 174.574219 134.148438 C 176.488281 135.742188 178.476562 137.378906 179.210938 139.945312 C 179.902344 142.34375 179.46875 143.027344 179.25 143.207031 C 178.882812 143.511719 178.222656 143.253906 177.863281 143.074219 C 176.074219 142.1875 174.160156 139.648438 174.273438 137.433594 L 174.335938 136.144531 L 174.390625 136.230469 L 174.410156 135.617188 C 174.425781 135.097656 174.449219 134.574219 174.472656 134.058594 Z M 186.644531 100.503906 C 185.617188 102.210938 184.242188 104.09375 182.140625 106.011719 C 181.566406 106.535156 181.03125 107.09375 180.53125 107.675781 C 182.640625 104.964844 184.519531 102.871094 186.019531 101.195312 C 186.230469 100.964844 186.441406 100.730469 186.644531 100.503906 Z M 179.167969 109.480469 C 175.261719 115.289062 174.226562 123.195312 173.765625 131.050781 L 173.734375 131.050781 L 173.671875 132.265625 C 170.753906 129.648438 168.691406 126.492188 173.359375 118.394531 C 175.378906 114.886719 177.34375 111.957031 179.167969 109.480469 Z M 188.105469 95.632812 C 184.484375 93.976562 176.492188 89.132812 177.078125 78.878906 C 177.246094 75.925781 177.542969 73.222656 177.949219 70.847656 C 181.492188 72.160156 183.628906 72.996094 186.625 74.410156 C 191.472656 76.699219 194.625 84.054688 191.59375 90.484375 L 191.515625 90.648438 L 191.871094 90.816406 C 190.792969 92.449219 189.976562 94.035156 189.121094 95.777344 C 188.921875 95.644531 188.726562 95.503906 188.53125 95.363281 L 188.382812 95.253906 Z M 186.949219 59.617188 C 189.402344 60.722656 190.644531 61.992188 191.738281 63.109375 C 193.4375 64.851562 194.78125 66.230469 199.46875 65.539062 C 201.746094 65.199219 203.964844 64.316406 206.109375 63.460938 C 209.175781 62.234375 211.824219 61.179688 213.652344 62.125 C 214.640625 62.628906 215.355469 63.722656 215.851562 65.449219 C 212.070312 68.890625 209.699219 75.332031 209.199219 76.773438 C 204.5 79.242188 199.308594 82.855469 195.949219 85.996094 C 194.851562 87.023438 193.882812 88.09375 192.992188 89.242188 C 195.050781 82.8125 191.738281 75.878906 186.988281 73.640625 C 183.925781 72.191406 181.753906 71.339844 178.105469 69.992188 C 179.140625 64.53125 180.804688 60.972656 182.933594 59.683594 C 184.105469 58.96875 185.457031 58.945312 186.949219 59.617188 Z M 210.316406 76.203125 C 211.09375 74.1875 213.183594 69.277344 216.101562 66.394531 C 216.648438 68.566406 217.234375 70.332031 217.703125 71.765625 C 217.90625 72.386719 218.105469 72.980469 218.265625 73.511719 C 216.253906 73.699219 213.515625 74.621094 210.316406 76.203125 Z M 197.660156 91.304688 C 201.078125 87.859375 205.53125 85.882812 209.847656 83.972656 C 212.273438 82.898438 214.5625 81.882812 216.492188 80.664062 C 219.691406 78.648438 220.015625 76.929688 219.382812 74.339844 C 219.636719 74.359375 219.886719 74.398438 220.117188 74.464844 C 220.863281 74.671875 221.308594 75.085938 221.507812 75.78125 C 222.054688 77.664062 221.664062 81.226562 218.789062 85.0625 C 215.894531 88.917969 208.554688 95.414062 191.710938 96.066406 C 193.066406 95.320312 195.0625 93.921875 197.660156 91.304688 Z M 196.53125 86.621094 C 202.324219 81.203125 213.117188 74.714844 218.511719 74.34375 C 219.152344 76.789062 218.917969 78.136719 216.039062 79.949219 C 214.15625 81.136719 211.894531 82.140625 209.5 83.203125 C 205.324219 85.054688 200.589844 87.152344 197.0625 90.710938 C 193.503906 94.300781 191.128906 95.515625 190 95.921875 C 191.402344 93.066406 193.054688 89.871094 196.53125 86.621094 Z M 219.460938 85.574219 C 222.527344 81.484375 222.917969 77.621094 222.324219 75.546875 C 222.042969 74.570312 221.371094 73.929688 220.34375 73.648438 C 219.988281 73.546875 219.59375 73.5 219.152344 73.484375 C 218.976562 72.886719 218.753906 72.214844 218.515625 71.5 C 218.011719 69.976562 217.382812 68.082031 216.816406 65.75 C 217.332031 65.320312 217.839844 64.980469 218.339844 64.734375 C 219.609375 64.105469 220.890625 64.007812 222.15625 64.4375 C 227.152344 66.132812 228.484375 69.242188 229.664062 71.996094 C 230.226562 73.300781 230.753906 74.53125 231.621094 75.453125 C 232.300781 76.175781 233.019531 76.71875 233.660156 77.199219 C 235.488281 78.570312 236.40625 79.257812 234.179688 82.316406 C 230.988281 86.699219 225.785156 92.90625 217.410156 96.261719 C 211.453125 98.648438 200.21875 101.855469 191.03125 96.941406 C 208.71875 96.425781 216.429688 89.613281 219.460938 85.574219 Z M 169.511719 91.769531 C 168.074219 90.464844 168.355469 89.472656 168.78125 87.96875 C 169.210938 86.476562 169.738281 84.617188 168.425781 82.039062 L 168.03125 81.269531 C 166.203125 77.722656 161.914062 69.402344 163.855469 67.21875 C 164.203125 66.832031 164.765625 66.648438 165.539062 66.671875 C 166.296875 66.699219 167.257812 66.921875 168.394531 67.34375 C 170.875 68.257812 172.925781 69.011719 174.699219 69.65625 L 174.792969 69.695312 C 175.644531 70.003906 176.421875 70.285156 177.136719 70.554688 C 176.707031 73.003906 176.398438 75.789062 176.222656 78.835938 C 175.542969 90.714844 185.953125 95.703125 188.515625 96.75 C 188.328125 97.105469 188.042969 97.523438 187.628906 98.050781 C 184.839844 97.367188 172.277344 94.28125 169.511719 91.769531 Z M 169.511719 91.769531 " fill-opacity="1" fill-rule="nonzero"/></g></g></g><g fill="#695853" fill-opacity="1"><g transform="translate(100.926545, 283.656046)"><g><path d="M 8.40625 -7 L 8.40625 0 L 7.703125 0 L 7.703125 -5.59375 L 4.953125 -0.890625 L 4.59375 -0.890625 L 1.84375 -5.5625 L 1.84375 0 L 1.140625 0 L 1.140625 -7 L 1.75 -7 L 4.796875 -1.8125 L 7.796875 -7 Z M 8.40625 -7 "/></g></g></g><g fill="#695853" fill-opacity="1"><g transform="translate(111.25278, 283.656046)"><g><path d="M 2.828125 -5.296875 C 3.515625 -5.296875 4.039062 -5.125 4.40625 -4.78125 C 4.769531 -4.4375 4.953125 -3.929688 4.953125 -3.265625 L 4.953125 0 L 4.28125 0 L 4.28125 -0.8125 C 4.125 -0.539062 3.890625 -0.328125 3.578125 -0.171875 C 3.265625 -0.0234375 2.894531 0.046875 2.46875 0.046875 C 1.882812 0.046875 1.414062 -0.09375 1.0625 -0.375 C 0.71875 -0.65625 0.546875 -1.023438 0.546875 -1.484375 C 0.546875 -1.929688 0.707031 -2.289062 1.03125 -2.5625 C 1.351562 -2.832031 1.867188 -2.96875 2.578125 -2.96875 L 4.25 -2.96875 L 4.25 -3.296875 C 4.25 -3.742188 4.117188 -4.085938 3.859375 -4.328125 C 3.609375 -4.566406 3.242188 -4.6875 2.765625 -4.6875 C 2.429688 -4.6875 2.109375 -4.628906 1.796875 -4.515625 C 1.492188 -4.398438 1.234375 -4.25 1.015625 -4.0625 L 0.6875 -4.59375 C 0.957031 -4.820312 1.273438 -4.992188 1.640625 -5.109375 C 2.015625 -5.234375 2.410156 -5.296875 2.828125 -5.296875 Z M 2.578125 -0.515625 C 2.984375 -0.515625 3.328125 -0.601562 3.609375 -0.78125 C 3.898438 -0.96875 4.113281 -1.234375 4.25 -1.578125 L 4.25 -2.4375 L 2.59375 -2.4375 C 1.695312 -2.4375 1.25 -2.125 1.25 -1.5 C 1.25 -1.195312 1.363281 -0.957031 1.59375 -0.78125 C 1.832031 -0.601562 2.160156 -0.515625 2.578125 -0.515625 Z M 2.578125 -0.515625 "/></g></g></g><g fill="#695853" fill-opacity="1"><g transform="translate(117.930456, 283.656046)"><g><path d="M 2.9375 -2.640625 L 1.703125 -1.5 L 1.703125 0 L 0.984375 0 L 0.984375 -7.421875 L 1.703125 -7.421875 L 1.703125 -2.390625 L 4.84375 -5.265625 L 5.71875 -5.265625 L 3.46875 -3.109375 L 5.9375 0 L 5.0625 0 Z M 2.9375 -2.640625 "/></g></g></g><g fill="#695853" fill-opacity="1"><g transform="translate(124.718086, 283.656046)"><g><path d="M 5.5625 -2.40625 L 1.171875 -2.40625 C 1.210938 -1.863281 1.421875 -1.421875 1.796875 -1.078125 C 2.179688 -0.742188 2.660156 -0.578125 3.234375 -0.578125 C 3.566406 -0.578125 3.867188 -0.632812 4.140625 -0.75 C 4.410156 -0.875 4.644531 -1.046875 4.84375 -1.265625 L 5.25 -0.8125 C 5.019531 -0.53125 4.726562 -0.316406 4.375 -0.171875 C 4.019531 -0.0234375 3.632812 0.046875 3.21875 0.046875 C 2.675781 0.046875 2.195312 -0.0664062 1.78125 -0.296875 C 1.363281 -0.523438 1.035156 -0.84375 0.796875 -1.25 C 0.566406 -1.65625 0.453125 -2.113281 0.453125 -2.625 C 0.453125 -3.144531 0.5625 -3.609375 0.78125 -4.015625 C 1.007812 -4.421875 1.316406 -4.734375 1.703125 -4.953125 C 2.097656 -5.179688 2.539062 -5.296875 3.03125 -5.296875 C 3.519531 -5.296875 3.957031 -5.179688 4.34375 -4.953125 C 4.726562 -4.734375 5.03125 -4.421875 5.25 -4.015625 C 5.46875 -3.609375 5.578125 -3.144531 5.578125 -2.625 Z M 3.03125 -4.6875 C 2.519531 -4.6875 2.09375 -4.523438 1.75 -4.203125 C 1.40625 -3.878906 1.210938 -3.457031 1.171875 -2.9375 L 4.90625 -2.9375 C 4.851562 -3.457031 4.65625 -3.878906 4.3125 -4.203125 C 3.96875 -4.523438 3.539062 -4.6875 3.03125 -4.6875 Z M 3.03125 -4.6875 "/></g></g></g><g fill="#695853" fill-opacity="1"><g transform="translate(131.5357, 283.656046)"><g><path d="M 5.734375 -5.265625 L 5.734375 0 L 5.046875 0 L 5.046875 -0.953125 C 4.859375 -0.640625 4.601562 -0.394531 4.28125 -0.21875 C 3.957031 -0.0390625 3.582031 0.046875 3.15625 0.046875 C 2.46875 0.046875 1.925781 -0.140625 1.53125 -0.515625 C 1.132812 -0.898438 0.9375 -1.460938 0.9375 -2.203125 L 0.9375 -5.265625 L 1.65625 -5.265625 L 1.65625 -2.28125 C 1.65625 -1.726562 1.789062 -1.304688 2.0625 -1.015625 C 2.332031 -0.734375 2.722656 -0.59375 3.234375 -0.59375 C 3.785156 -0.59375 4.21875 -0.757812 4.53125 -1.09375 C 4.851562 -1.425781 5.015625 -1.894531 5.015625 -2.5 L 5.015625 -5.265625 Z M 5.734375 -5.265625 "/></g></g></g><g fill="#695853" fill-opacity="1"><g transform="translate(139.043039, 283.656046)"><g><path d="M 3.703125 -5.296875 C 4.191406 -5.296875 4.632812 -5.179688 5.03125 -4.953125 C 5.4375 -4.734375 5.75 -4.421875 5.96875 -4.015625 C 6.195312 -3.609375 6.3125 -3.144531 6.3125 -2.625 C 6.3125 -2.101562 6.195312 -1.640625 5.96875 -1.234375 C 5.75 -0.828125 5.441406 -0.507812 5.046875 -0.28125 C 4.648438 -0.0625 4.203125 0.046875 3.703125 0.046875 C 3.273438 0.046875 2.890625 -0.0390625 2.546875 -0.21875 C 2.203125 -0.394531 1.921875 -0.648438 1.703125 -0.984375 L 1.703125 1.9375 L 0.984375 1.9375 L 0.984375 -5.265625 L 1.671875 -5.265625 L 1.671875 -4.21875 C 1.878906 -4.5625 2.160156 -4.828125 2.515625 -5.015625 C 2.867188 -5.203125 3.265625 -5.296875 3.703125 -5.296875 Z M 3.65625 -0.578125 C 4.019531 -0.578125 4.347656 -0.660156 4.640625 -0.828125 C 4.941406 -1.003906 5.175781 -1.25 5.34375 -1.5625 C 5.519531 -1.875 5.609375 -2.226562 5.609375 -2.625 C 5.609375 -3.03125 5.519531 -3.382812 5.34375 -3.6875 C 5.175781 -4 4.941406 -4.242188 4.640625 -4.421875 C 4.347656 -4.597656 4.019531 -4.6875 3.65625 -4.6875 C 3.28125 -4.6875 2.941406 -4.597656 2.640625 -4.421875 C 2.347656 -4.242188 2.113281 -4 1.9375 -3.6875 C 1.769531 -3.382812 1.6875 -3.03125 1.6875 -2.625 C 1.6875 -2.226562 1.769531 -1.875 1.9375 -1.5625 C 2.113281 -1.25 2.347656 -1.003906 2.640625 -0.828125 C 2.941406 -0.660156 3.28125 -0.578125 3.65625 -0.578125 Z M 3.65625 -0.578125 "/></g></g></g><g fill="#695853" fill-opacity="1"><g transform="translate(146.600364, 283.656046)"><g/></g></g><g fill="#695853" fill-opacity="1"><g transform="translate(149.999334, 283.656046)"><g><path d="M 5.53125 -1.875 L 1.625 -1.875 L 0.796875 0 L 0.015625 0 L 3.21875 -7 L 3.953125 -7 L 7.15625 0 L 6.375 0 Z M 5.265625 -2.46875 L 3.578125 -6.234375 L 1.90625 -2.46875 Z M 5.265625 -2.46875 "/></g></g></g><g fill="#695853" fill-opacity="1"><g transform="translate(157.9465, 283.656046)"><g><path d="M 1.671875 -4.234375 C 1.835938 -4.585938 2.082031 -4.851562 2.40625 -5.03125 C 2.738281 -5.207031 3.148438 -5.296875 3.640625 -5.296875 L 3.640625 -4.609375 L 3.46875 -4.625 C 2.914062 -4.625 2.484375 -4.453125 2.171875 -4.109375 C 1.859375 -3.765625 1.703125 -3.289062 1.703125 -2.6875 L 1.703125 0 L 0.984375 0 L 0.984375 -5.265625 L 1.671875 -5.265625 Z M 1.671875 -4.234375 "/></g></g></g><g fill="#695853" fill-opacity="1"><g transform="translate(162.734913, 283.656046)"><g><path d="M 3.765625 -0.3125 C 3.628906 -0.195312 3.460938 -0.109375 3.265625 -0.046875 C 3.066406 0.015625 2.863281 0.046875 2.65625 0.046875 C 2.15625 0.046875 1.769531 -0.0820312 1.5 -0.34375 C 1.238281 -0.613281 1.109375 -0.992188 1.109375 -1.484375 L 1.109375 -4.65625 L 0.171875 -4.65625 L 0.171875 -5.265625 L 1.109375 -5.265625 L 1.109375 -6.40625 L 1.8125 -6.40625 L 1.8125 -5.265625 L 3.421875 -5.265625 L 3.421875 -4.65625 L 1.8125 -4.65625 L 1.8125 -1.515625 C 1.8125 -1.203125 1.890625 -0.960938 2.046875 -0.796875 C 2.210938 -0.640625 2.441406 -0.5625 2.734375 -0.5625 C 2.878906 -0.5625 3.019531 -0.582031 3.15625 -0.625 C 3.289062 -0.675781 3.410156 -0.742188 3.515625 -0.828125 Z M 3.765625 -0.3125 "/></g></g></g><g fill="#695853" fill-opacity="1"><g transform="translate(167.573303, 283.656046)"><g><path d="M 0.984375 -5.265625 L 1.703125 -5.265625 L 1.703125 0 L 0.984375 0 Z M 1.34375 -6.40625 C 1.195312 -6.40625 1.070312 -6.453125 0.96875 -6.546875 C 0.875 -6.648438 0.828125 -6.773438 0.828125 -6.921875 C 0.828125 -7.054688 0.875 -7.171875 0.96875 -7.265625 C 1.070312 -7.367188 1.195312 -7.421875 1.34375 -7.421875 C 1.488281 -7.421875 1.609375 -7.367188 1.703125 -7.265625 C 1.804688 -7.171875 1.859375 -7.0625 1.859375 -6.9375 C 1.859375 -6.78125 1.804688 -6.648438 1.703125 -6.546875 C 1.609375 -6.453125 1.488281 -6.40625 1.34375 -6.40625 Z M 1.34375 -6.40625 "/></g></g></g><g fill="#695853" fill-opacity="1"><g transform="translate(171.042236, 283.656046)"><g><path d="M 2.40625 0.046875 C 1.976562 0.046875 1.566406 -0.0078125 1.171875 -0.125 C 0.785156 -0.25 0.484375 -0.40625 0.265625 -0.59375 L 0.578125 -1.15625 C 0.796875 -0.988281 1.070312 -0.847656 1.40625 -0.734375 C 1.738281 -0.617188 2.085938 -0.5625 2.453125 -0.5625 C 2.929688 -0.5625 3.285156 -0.632812 3.515625 -0.78125 C 3.742188 -0.9375 3.859375 -1.15625 3.859375 -1.4375 C 3.859375 -1.625 3.796875 -1.769531 3.671875 -1.875 C 3.546875 -1.988281 3.382812 -2.070312 3.1875 -2.125 C 3 -2.1875 2.742188 -2.242188 2.421875 -2.296875 C 1.992188 -2.378906 1.648438 -2.460938 1.390625 -2.546875 C 1.128906 -2.628906 0.90625 -2.769531 0.71875 -2.96875 C 0.539062 -3.164062 0.453125 -3.441406 0.453125 -3.796875 C 0.453125 -4.234375 0.632812 -4.59375 1 -4.875 C 1.363281 -5.15625 1.875 -5.296875 2.53125 -5.296875 C 2.875 -5.296875 3.210938 -5.25 3.546875 -5.15625 C 3.890625 -5.070312 4.171875 -4.957031 4.390625 -4.8125 L 4.078125 -4.234375 C 3.648438 -4.535156 3.132812 -4.6875 2.53125 -4.6875 C 2.070312 -4.6875 1.726562 -4.601562 1.5 -4.4375 C 1.269531 -4.28125 1.15625 -4.070312 1.15625 -3.8125 C 1.15625 -3.613281 1.21875 -3.453125 1.34375 -3.328125 C 1.476562 -3.210938 1.640625 -3.125 1.828125 -3.0625 C 2.023438 -3.007812 2.296875 -2.957031 2.640625 -2.90625 C 3.054688 -2.820312 3.390625 -2.738281 3.640625 -2.65625 C 3.898438 -2.582031 4.117188 -2.445312 4.296875 -2.25 C 4.472656 -2.050781 4.5625 -1.785156 4.5625 -1.453125 C 4.5625 -0.992188 4.367188 -0.628906 3.984375 -0.359375 C 3.609375 -0.0859375 3.082031 0.046875 2.40625 0.046875 Z M 2.40625 0.046875 "/></g></g></g><g fill="#695853" fill-opacity="1"><g transform="translate(176.7103, 283.656046)"><g><path d="M 3.765625 -0.3125 C 3.628906 -0.195312 3.460938 -0.109375 3.265625 -0.046875 C 3.066406 0.015625 2.863281 0.046875 2.65625 0.046875 C 2.15625 0.046875 1.769531 -0.0820312 1.5 -0.34375 C 1.238281 -0.613281 1.109375 -0.992188 1.109375 -1.484375 L 1.109375 -4.65625 L 0.171875 -4.65625 L 0.171875 -5.265625 L 1.109375 -5.265625 L 1.109375 -6.40625 L 1.8125 -6.40625 L 1.8125 -5.265625 L 3.421875 -5.265625 L 3.421875 -4.65625 L 1.8125 -4.65625 L 1.8125 -1.515625 C 1.8125 -1.203125 1.890625 -0.960938 2.046875 -0.796875 C 2.210938 -0.640625 2.441406 -0.5625 2.734375 -0.5625 C 2.878906 -0.5625 3.019531 -0.582031 3.15625 -0.625 C 3.289062 -0.675781 3.410156 -0.742188 3.515625 -0.828125 Z M 3.765625 -0.3125 "/></g></g></g><g fill="#695853" fill-opacity="1"><g transform="translate(181.54869, 283.656046)"><g/></g></g><g fill="#695853" fill-opacity="1"><g transform="translate(184.947654, 283.656046)"><g><path d="M 6.15625 0.109375 L 5.1875 -0.890625 C 4.59375 -0.253906 3.8125 0.0625 2.84375 0.0625 C 2.382812 0.0625 1.976562 -0.0078125 1.625 -0.15625 C 1.269531 -0.3125 0.988281 -0.523438 0.78125 -0.796875 C 0.582031 -1.066406 0.484375 -1.375 0.484375 -1.71875 C 0.484375 -2.132812 0.617188 -2.507812 0.890625 -2.84375 C 1.160156 -3.175781 1.613281 -3.53125 2.25 -3.90625 C 1.914062 -4.25 1.6875 -4.539062 1.5625 -4.78125 C 1.4375 -5.03125 1.375 -5.289062 1.375 -5.5625 C 1.375 -6.007812 1.53125 -6.367188 1.84375 -6.640625 C 2.164062 -6.910156 2.597656 -7.046875 3.140625 -7.046875 C 3.640625 -7.046875 4.035156 -6.921875 4.328125 -6.671875 C 4.617188 -6.429688 4.765625 -6.09375 4.765625 -5.65625 C 4.765625 -5.3125 4.644531 -5 4.40625 -4.71875 C 4.175781 -4.445312 3.773438 -4.144531 3.203125 -3.8125 L 5.125 -1.828125 C 5.34375 -2.210938 5.5 -2.664062 5.59375 -3.1875 L 6.1875 -3 C 6.050781 -2.375 5.84375 -1.835938 5.5625 -1.390625 L 6.5625 -0.359375 Z M 3.140625 -6.515625 C 2.796875 -6.515625 2.523438 -6.425781 2.328125 -6.25 C 2.128906 -6.082031 2.03125 -5.851562 2.03125 -5.5625 C 2.03125 -5.363281 2.082031 -5.171875 2.1875 -4.984375 C 2.289062 -4.796875 2.5 -4.539062 2.8125 -4.21875 C 3.320312 -4.507812 3.671875 -4.757812 3.859375 -4.96875 C 4.054688 -5.175781 4.15625 -5.40625 4.15625 -5.65625 C 4.15625 -5.914062 4.066406 -6.125 3.890625 -6.28125 C 3.710938 -6.4375 3.460938 -6.515625 3.140625 -6.515625 Z M 2.875 -0.53125 C 3.65625 -0.53125 4.285156 -0.789062 4.765625 -1.3125 L 2.65625 -3.484375 C 2.09375 -3.171875 1.707031 -2.890625 1.5 -2.640625 C 1.289062 -2.390625 1.1875 -2.109375 1.1875 -1.796875 C 1.1875 -1.410156 1.34375 -1.101562 1.65625 -0.875 C 1.96875 -0.644531 2.375 -0.53125 2.875 -0.53125 Z M 2.875 -0.53125 "/></g></g></g><g fill="#695853" fill-opacity="1"><g transform="translate(192.415015, 283.656046)"><g/></g></g><g fill="#695853" fill-opacity="1"><g transform="translate(195.813978, 283.656046)"><g><path d="M 6.984375 -7 L 6.984375 0 L 6.265625 0 L 6.265625 -3.234375 L 1.875 -3.234375 L 1.875 0 L 1.140625 0 L 1.140625 -7 L 1.875 -7 L 1.875 -3.875 L 6.265625 -3.875 L 6.265625 -7 Z M 6.984375 -7 "/></g></g></g><g fill="#695853" fill-opacity="1"><g transform="translate(204.720766, 283.656046)"><g><path d="M 2.828125 -5.296875 C 3.515625 -5.296875 4.039062 -5.125 4.40625 -4.78125 C 4.769531 -4.4375 4.953125 -3.929688 4.953125 -3.265625 L 4.953125 0 L 4.28125 0 L 4.28125 -0.8125 C 4.125 -0.539062 3.890625 -0.328125 3.578125 -0.171875 C 3.265625 -0.0234375 2.894531 0.046875 2.46875 0.046875 C 1.882812 0.046875 1.414062 -0.09375 1.0625 -0.375 C 0.71875 -0.65625 0.546875 -1.023438 0.546875 -1.484375 C 0.546875 -1.929688 0.707031 -2.289062 1.03125 -2.5625 C 1.351562 -2.832031 1.867188 -2.96875 2.578125 -2.96875 L 4.25 -2.96875 L 4.25 -3.296875 C 4.25 -3.742188 4.117188 -4.085938 3.859375 -4.328125 C 3.609375 -4.566406 3.242188 -4.6875 2.765625 -4.6875 C 2.429688 -4.6875 2.109375 -4.628906 1.796875 -4.515625 C 1.492188 -4.398438 1.234375 -4.25 1.015625 -4.0625 L 0.6875 -4.59375 C 0.957031 -4.820312 1.273438 -4.992188 1.640625 -5.109375 C 2.015625 -5.234375 2.410156 -5.296875 2.828125 -5.296875 Z M 2.578125 -0.515625 C 2.984375 -0.515625 3.328125 -0.601562 3.609375 -0.78125 C 3.898438 -0.96875 4.113281 -1.234375 4.25 -1.578125 L 4.25 -2.4375 L 2.59375 -2.4375 C 1.695312 -2.4375 1.25 -2.125 1.25 -1.5 C 1.25 -1.195312 1.363281 -0.957031 1.59375 -0.78125 C 1.832031 -0.601562 2.160156 -0.515625 2.578125 -0.515625 Z M 2.578125 -0.515625 "/></g></g></g><g fill="#695853" fill-opacity="1"><g transform="translate(211.398439, 283.656046)"><g><path d="M 0.984375 -5.265625 L 1.703125 -5.265625 L 1.703125 0 L 0.984375 0 Z M 1.34375 -6.40625 C 1.195312 -6.40625 1.070312 -6.453125 0.96875 -6.546875 C 0.875 -6.648438 0.828125 -6.773438 0.828125 -6.921875 C 0.828125 -7.054688 0.875 -7.171875 0.96875 -7.265625 C 1.070312 -7.367188 1.195312 -7.421875 1.34375 -7.421875 C 1.488281 -7.421875 1.609375 -7.367188 1.703125 -7.265625 C 1.804688 -7.171875 1.859375 -7.0625 1.859375 -6.9375 C 1.859375 -6.78125 1.804688 -6.648438 1.703125 -6.546875 C 1.609375 -6.453125 1.488281 -6.40625 1.34375 -6.40625 Z M 1.34375 -6.40625 "/></g></g></g><g fill="#695853" fill-opacity="1"><g transform="translate(214.867371, 283.656046)"><g><path d="M 1.671875 -4.234375 C 1.835938 -4.585938 2.082031 -4.851562 2.40625 -5.03125 C 2.738281 -5.207031 3.148438 -5.296875 3.640625 -5.296875 L 3.640625 -4.609375 L 3.46875 -4.625 C 2.914062 -4.625 2.484375 -4.453125 2.171875 -4.109375 C 1.859375 -3.765625 1.703125 -3.289062 1.703125 -2.6875 L 1.703125 0 L 0.984375 0 L 0.984375 -5.265625 L 1.671875 -5.265625 Z M 1.671875 -4.234375 "/></g></g></g><g fill="#695853" fill-opacity="1"><g transform="translate(219.655785, 283.656046)"><g/></g></g><g fill="#695853" fill-opacity="1"><g transform="translate(223.054749, 283.656046)"><g><path d="M 1.140625 -7 L 3.984375 -7 C 4.722656 -7 5.375 -6.847656 5.9375 -6.546875 C 6.507812 -6.253906 6.953125 -5.84375 7.265625 -5.3125 C 7.578125 -4.78125 7.734375 -4.175781 7.734375 -3.5 C 7.734375 -2.820312 7.578125 -2.21875 7.265625 -1.6875 C 6.953125 -1.15625 6.507812 -0.738281 5.9375 -0.4375 C 5.375 -0.144531 4.722656 0 3.984375 0 L 1.140625 0 Z M 3.953125 -0.640625 C 4.566406 -0.640625 5.101562 -0.757812 5.5625 -1 C 6.019531 -1.25 6.375 -1.585938 6.625 -2.015625 C 6.882812 -2.441406 7.015625 -2.9375 7.015625 -3.5 C 7.015625 -4.0625 6.882812 -4.554688 6.625 -4.984375 C 6.375 -5.410156 6.019531 -5.742188 5.5625 -5.984375 C 5.101562 -6.234375 4.566406 -6.359375 3.953125 -6.359375 L 1.875 -6.359375 L 1.875 -0.640625 Z M 3.953125 -0.640625 "/></g></g></g><g fill="#695853" fill-opacity="1"><g transform="translate(232.091484, 283.656046)"><g><path d="M 5.5625 -2.40625 L 1.171875 -2.40625 C 1.210938 -1.863281 1.421875 -1.421875 1.796875 -1.078125 C 2.179688 -0.742188 2.660156 -0.578125 3.234375 -0.578125 C 3.566406 -0.578125 3.867188 -0.632812 4.140625 -0.75 C 4.410156 -0.875 4.644531 -1.046875 4.84375 -1.265625 L 5.25 -0.8125 C 5.019531 -0.53125 4.726562 -0.316406 4.375 -0.171875 C 4.019531 -0.0234375 3.632812 0.046875 3.21875 0.046875 C 2.675781 0.046875 2.195312 -0.0664062 1.78125 -0.296875 C 1.363281 -0.523438 1.035156 -0.84375 0.796875 -1.25 C 0.566406 -1.65625 0.453125 -2.113281 0.453125 -2.625 C 0.453125 -3.144531 0.5625 -3.609375 0.78125 -4.015625 C 1.007812 -4.421875 1.316406 -4.734375 1.703125 -4.953125 C 2.097656 -5.179688 2.539062 -5.296875 3.03125 -5.296875 C 3.519531 -5.296875 3.957031 -5.179688 4.34375 -4.953125 C 4.726562 -4.734375 5.03125 -4.421875 5.25 -4.015625 C 5.46875 -3.609375 5.578125 -3.144531 5.578125 -2.625 Z M 3.03125 -4.6875 C 2.519531 -4.6875 2.09375 -4.523438 1.75 -4.203125 C 1.40625 -3.878906 1.210938 -3.457031 1.171875 -2.9375 L 4.90625 -2.9375 C 4.851562 -3.457031 4.65625 -3.878906 4.3125 -4.203125 C 3.96875 -4.523438 3.539062 -4.6875 3.03125 -4.6875 Z M 3.03125 -4.6875 "/></g></g></g><g fill="#695853" fill-opacity="1"><g transform="translate(238.909095, 283.656046)"><g><path d="M 2.40625 0.046875 C 1.976562 0.046875 1.566406 -0.0078125 1.171875 -0.125 C 0.785156 -0.25 0.484375 -0.40625 0.265625 -0.59375 L 0.578125 -1.15625 C 0.796875 -0.988281 1.070312 -0.847656 1.40625 -0.734375 C 1.738281 -0.617188 2.085938 -0.5625 2.453125 -0.5625 C 2.929688 -0.5625 3.285156 -0.632812 3.515625 -0.78125 C 3.742188 -0.9375 3.859375 -1.15625 3.859375 -1.4375 C 3.859375 -1.625 3.796875 -1.769531 3.671875 -1.875 C 3.546875 -1.988281 3.382812 -2.070312 3.1875 -2.125 C 3 -2.1875 2.742188 -2.242188 2.421875 -2.296875 C 1.992188 -2.378906 1.648438 -2.460938 1.390625 -2.546875 C 1.128906 -2.628906 0.90625 -2.769531 0.71875 -2.96875 C 0.539062 -3.164062 0.453125 -3.441406 0.453125 -3.796875 C 0.453125 -4.234375 0.632812 -4.59375 1 -4.875 C 1.363281 -5.15625 1.875 -5.296875 2.53125 -5.296875 C 2.875 -5.296875 3.210938 -5.25 3.546875 -5.15625 C 3.890625 -5.070312 4.171875 -4.957031 4.390625 -4.8125 L 4.078125 -4.234375 C 3.648438 -4.535156 3.132812 -4.6875 2.53125 -4.6875 C 2.070312 -4.6875 1.726562 -4.601562 1.5 -4.4375 C 1.269531 -4.28125 1.15625 -4.070312 1.15625 -3.8125 C 1.15625 -3.613281 1.21875 -3.453125 1.34375 -3.328125 C 1.476562 -3.210938 1.640625 -3.125 1.828125 -3.0625 C 2.023438 -3.007812 2.296875 -2.957031 2.640625 -2.90625 C 3.054688 -2.820312 3.390625 -2.738281 3.640625 -2.65625 C 3.898438 -2.582031 4.117188 -2.445312 4.296875 -2.25 C 4.472656 -2.050781 4.5625 -1.785156 4.5625 -1.453125 C 4.5625 -0.992188 4.367188 -0.628906 3.984375 -0.359375 C 3.609375 -0.0859375 3.082031 0.046875 2.40625 0.046875 Z M 2.40625 0.046875 "/></g></g></g><g fill="#695853" fill-opacity="1"><g transform="translate(244.577159, 283.656046)"><g><path d="M 0.984375 -5.265625 L 1.703125 -5.265625 L 1.703125 0 L 0.984375 0 Z M 1.34375 -6.40625 C 1.195312 -6.40625 1.070312 -6.453125 0.96875 -6.546875 C 0.875 -6.648438 0.828125 -6.773438 0.828125 -6.921875 C 0.828125 -7.054688 0.875 -7.171875 0.96875 -7.265625 C 1.070312 -7.367188 1.195312 -7.421875 1.34375 -7.421875 C 1.488281 -7.421875 1.609375 -7.367188 1.703125 -7.265625 C 1.804688 -7.171875 1.859375 -7.0625 1.859375 -6.9375 C 1.859375 -6.78125 1.804688 -6.648438 1.703125 -6.546875 C 1.609375 -6.453125 1.488281 -6.40625 1.34375 -6.40625 Z M 1.34375 -6.40625 "/></g></g></g><g fill="#695853" fill-opacity="1"><g transform="translate(248.046091, 283.656046)"><g><path d="M 5.859375 -5.265625 L 5.859375 -0.640625 C 5.859375 0.253906 5.640625 0.914062 5.203125 1.34375 C 4.765625 1.769531 4.109375 1.984375 3.234375 1.984375 C 2.742188 1.984375 2.28125 1.910156 1.84375 1.765625 C 1.40625 1.628906 1.050781 1.4375 0.78125 1.1875 L 1.140625 0.640625 C 1.390625 0.867188 1.695312 1.046875 2.0625 1.171875 C 2.425781 1.296875 2.804688 1.359375 3.203125 1.359375 C 3.867188 1.359375 4.359375 1.203125 4.671875 0.890625 C 4.992188 0.585938 5.15625 0.109375 5.15625 -0.546875 L 5.15625 -1.21875 C 4.925781 -0.882812 4.632812 -0.628906 4.28125 -0.453125 C 3.925781 -0.285156 3.53125 -0.203125 3.09375 -0.203125 C 2.601562 -0.203125 2.15625 -0.304688 1.75 -0.515625 C 1.351562 -0.734375 1.035156 -1.035156 0.796875 -1.421875 C 0.566406 -1.816406 0.453125 -2.265625 0.453125 -2.765625 C 0.453125 -3.253906 0.566406 -3.691406 0.796875 -4.078125 C 1.035156 -4.460938 1.351562 -4.757812 1.75 -4.96875 C 2.144531 -5.1875 2.59375 -5.296875 3.09375 -5.296875 C 3.539062 -5.296875 3.941406 -5.207031 4.296875 -5.03125 C 4.660156 -4.851562 4.957031 -4.59375 5.1875 -4.25 L 5.1875 -5.265625 Z M 3.171875 -0.828125 C 3.546875 -0.828125 3.882812 -0.90625 4.1875 -1.0625 C 4.5 -1.226562 4.738281 -1.457031 4.90625 -1.75 C 5.082031 -2.050781 5.171875 -2.390625 5.171875 -2.765625 C 5.171875 -3.128906 5.082031 -3.457031 4.90625 -3.75 C 4.738281 -4.039062 4.503906 -4.269531 4.203125 -4.4375 C 3.898438 -4.601562 3.554688 -4.6875 3.171875 -4.6875 C 2.785156 -4.6875 2.441406 -4.601562 2.140625 -4.4375 C 1.835938 -4.28125 1.601562 -4.050781 1.4375 -3.75 C 1.269531 -3.457031 1.1875 -3.128906 1.1875 -2.765625 C 1.1875 -2.390625 1.269531 -2.050781 1.4375 -1.75 C 1.601562 -1.457031 1.835938 -1.226562 2.140625 -1.0625 C 2.441406 -0.90625 2.785156 -0.828125 3.171875 -0.828125 Z M 3.171875 -0.828125 "/></g></g></g><g fill="#695853" fill-opacity="1"><g transform="translate(255.683386, 283.656046)"><g><path d="M 3.671875 -5.296875 C 4.328125 -5.296875 4.847656 -5.101562 5.234375 -4.71875 C 5.628906 -4.34375 5.828125 -3.785156 5.828125 -3.046875 L 5.828125 0 L 5.125 0 L 5.125 -2.984375 C 5.125 -3.523438 4.984375 -3.9375 4.703125 -4.21875 C 4.429688 -4.507812 4.046875 -4.65625 3.546875 -4.65625 C 2.972656 -4.65625 2.519531 -4.488281 2.1875 -4.15625 C 1.863281 -3.820312 1.703125 -3.359375 1.703125 -2.765625 L 1.703125 0 L 0.984375 0 L 0.984375 -5.265625 L 1.671875 -5.265625 L 1.671875 -4.296875 C 1.859375 -4.609375 2.125 -4.851562 2.46875 -5.03125 C 2.8125 -5.207031 3.210938 -5.296875 3.671875 -5.296875 Z M 3.671875 -5.296875 "/></g></g></g><g fill="#695853" fill-opacity="1"><g transform="translate(263.230707, 283.656046)"><g><path d="M 5.5625 -2.40625 L 1.171875 -2.40625 C 1.210938 -1.863281 1.421875 -1.421875 1.796875 -1.078125 C 2.179688 -0.742188 2.660156 -0.578125 3.234375 -0.578125 C 3.566406 -0.578125 3.867188 -0.632812 4.140625 -0.75 C 4.410156 -0.875 4.644531 -1.046875 4.84375 -1.265625 L 5.25 -0.8125 C 5.019531 -0.53125 4.726562 -0.316406 4.375 -0.171875 C 4.019531 -0.0234375 3.632812 0.046875 3.21875 0.046875 C 2.675781 0.046875 2.195312 -0.0664062 1.78125 -0.296875 C 1.363281 -0.523438 1.035156 -0.84375 0.796875 -1.25 C 0.566406 -1.65625 0.453125 -2.113281 0.453125 -2.625 C 0.453125 -3.144531 0.5625 -3.609375 0.78125 -4.015625 C 1.007812 -4.421875 1.316406 -4.734375 1.703125 -4.953125 C 2.097656 -5.179688 2.539062 -5.296875 3.03125 -5.296875 C 3.519531 -5.296875 3.957031 -5.179688 4.34375 -4.953125 C 4.726562 -4.734375 5.03125 -4.421875 5.25 -4.015625 C 5.46875 -3.609375 5.578125 -3.144531 5.578125 -2.625 Z M 3.03125 -4.6875 C 2.519531 -4.6875 2.09375 -4.523438 1.75 -4.203125 C 1.40625 -3.878906 1.210938 -3.457031 1.171875 -2.9375 L 4.90625 -2.9375 C 4.851562 -3.457031 4.65625 -3.878906 4.3125 -4.203125 C 3.96875 -4.523438 3.539062 -4.6875 3.03125 -4.6875 Z M 3.03125 -4.6875 "/></g></g></g><g fill="#695853" fill-opacity="1"><g transform="translate(270.048318, 283.656046)"><g><path d="M 1.671875 -4.234375 C 1.835938 -4.585938 2.082031 -4.851562 2.40625 -5.03125 C 2.738281 -5.207031 3.148438 -5.296875 3.640625 -5.296875 L 3.640625 -4.609375 L 3.46875 -4.625 C 2.914062 -4.625 2.484375 -4.453125 2.171875 -4.109375 C 1.859375 -3.765625 1.703125 -3.289062 1.703125 -2.6875 L 1.703125 0 L 0.984375 0 L 0.984375 -5.265625 L 1.671875 -5.265625 Z M 1.671875 -4.234375 "/></g></g></g><g fill="#000000" fill-opacity="1"><g transform="translate(84.1939, 269.931397)"><g><path d="M 0.71875 0 L 0.71875 -0.21875 L 1.4375 -0.21875 C 1.945312 -0.21875 2.273438 -0.328125 2.421875 -0.546875 C 2.578125 -0.765625 2.65625 -1.265625 2.65625 -2.046875 L 2.65625 -14.015625 C 2.65625 -14.796875 2.578125 -15.296875 2.421875 -15.515625 C 2.273438 -15.734375 1.96875 -15.84375 1.5 -15.84375 L 0.71875 -15.84375 L 0.71875 -16.0625 L 3.9375 -16.0625 L 8.375 -1.421875 L 12.53125 -16.0625 L 15.59375 -16.0625 L 15.59375 -15.84375 L 15.046875 -15.84375 C 14.585938 -15.84375 14.285156 -15.734375 14.140625 -15.515625 C 13.992188 -15.296875 13.921875 -14.804688 13.921875 -14.046875 L 13.921875 -2.03125 C 13.921875 -1.519531 13.945312 -1.132812 14 -0.875 C 14.050781 -0.625 14.164062 -0.453125 14.34375 -0.359375 C 14.519531 -0.265625 14.78125 -0.21875 15.125 -0.21875 L 15.59375 -0.21875 L 15.59375 0 L 10.953125 0 L 10.953125 -0.21875 L 11.359375 -0.21875 C 11.703125 -0.21875 11.960938 -0.265625 12.140625 -0.359375 C 12.328125 -0.453125 12.445312 -0.628906 12.5 -0.890625 C 12.550781 -1.148438 12.578125 -1.550781 12.578125 -2.09375 L 12.578125 -15.375 L 8.21875 0 L 7.5 0 L 2.875 -15.1875 L 2.875 -2.0625 C 2.875 -1.53125 2.90625 -1.128906 2.96875 -0.859375 C 3.039062 -0.597656 3.171875 -0.425781 3.359375 -0.34375 C 3.546875 -0.257812 3.820312 -0.21875 4.1875 -0.21875 L 4.84375 -0.21875 L 4.84375 0 Z M 0.71875 0 "/></g></g></g><g fill="#000000" fill-opacity="1"><g transform="translate(104.839612, 269.931397)"><g><path d="M 0.71875 0 L 0.71875 -0.21875 L 1.3125 -0.21875 C 1.789062 -0.21875 2.097656 -0.328125 2.234375 -0.546875 C 2.367188 -0.765625 2.4375 -1.257812 2.4375 -2.03125 L 2.4375 -14.015625 C 2.4375 -14.796875 2.367188 -15.296875 2.234375 -15.515625 C 2.097656 -15.734375 1.789062 -15.84375 1.3125 -15.84375 L 0.71875 -15.84375 L 0.71875 -16.0625 L 5.515625 -16.0625 L 5.515625 -15.84375 L 4.921875 -15.84375 C 4.597656 -15.84375 4.351562 -15.796875 4.1875 -15.703125 C 4.019531 -15.609375 3.910156 -15.4375 3.859375 -15.1875 C 3.804688 -14.9375 3.78125 -14.546875 3.78125 -14.015625 L 3.78125 -2.03125 C 3.78125 -1.257812 3.847656 -0.765625 3.984375 -0.546875 C 4.117188 -0.328125 4.429688 -0.21875 4.921875 -0.21875 L 5.515625 -0.21875 L 5.515625 0 Z M 0.71875 0 "/></g></g></g><g fill="#000000" fill-opacity="1"><g transform="translate(115.410542, 269.931397)"><g><path d="M 6.203125 0.21875 C 5.066406 0.21875 4.113281 -0.125 3.34375 -0.8125 C 2.570312 -1.5 1.984375 -2.460938 1.578125 -3.703125 C 1.179688 -4.953125 0.984375 -6.410156 0.984375 -8.078125 C 0.984375 -9.742188 1.179688 -11.191406 1.578125 -12.421875 C 1.984375 -13.648438 2.582031 -14.601562 3.375 -15.28125 C 4.164062 -15.957031 5.148438 -16.296875 6.328125 -16.296875 C 7.429688 -16.296875 8.296875 -16.039062 8.921875 -15.53125 C 9.546875 -15.019531 9.859375 -14.414062 9.859375 -13.71875 C 9.859375 -13.332031 9.753906 -13.023438 9.546875 -12.796875 C 9.347656 -12.578125 9.078125 -12.46875 8.734375 -12.46875 C 8.734375 -13.664062 8.550781 -14.5625 8.1875 -15.15625 C 7.832031 -15.757812 7.210938 -16.0625 6.328125 -16.0625 C 4.910156 -16.0625 3.898438 -15.351562 3.296875 -13.9375 C 2.703125 -12.53125 2.40625 -10.578125 2.40625 -8.078125 C 2.40625 -5.546875 2.722656 -3.566406 3.359375 -2.140625 C 3.992188 -0.722656 5.019531 -0.015625 6.4375 -0.015625 C 7.289062 -0.015625 7.945312 -0.273438 8.40625 -0.796875 C 8.863281 -1.316406 9.164062 -2.007812 9.3125 -2.875 C 9.507812 -2.820312 9.640625 -2.722656 9.703125 -2.578125 C 9.773438 -2.429688 9.8125 -2.300781 9.8125 -2.1875 C 9.8125 -1.84375 9.675781 -1.484375 9.40625 -1.109375 C 9.132812 -0.742188 8.726562 -0.429688 8.1875 -0.171875 C 7.644531 0.0859375 6.984375 0.21875 6.203125 0.21875 Z M 6.203125 0.21875 "/></g></g></g><g fill="#000000" fill-opacity="1"><g transform="translate(130.231773, 269.931397)"><g><path d="M 0.75 0 L 0.75 -0.21875 L 1.265625 -0.21875 C 1.585938 -0.21875 1.828125 -0.265625 1.984375 -0.359375 C 2.148438 -0.453125 2.257812 -0.625 2.3125 -0.875 C 2.363281 -1.132812 2.390625 -1.519531 2.390625 -2.03125 L 2.390625 -14.015625 C 2.390625 -14.546875 2.363281 -14.9375 2.3125 -15.1875 C 2.257812 -15.4375 2.144531 -15.609375 1.96875 -15.703125 C 1.789062 -15.796875 1.539062 -15.84375 1.21875 -15.84375 L 0.75 -15.84375 L 0.75 -16.0625 L 5.484375 -16.0625 L 5.484375 -15.84375 L 4.875 -15.84375 C 4.550781 -15.84375 4.3125 -15.796875 4.15625 -15.703125 C 4 -15.609375 3.890625 -15.4375 3.828125 -15.1875 C 3.773438 -14.9375 3.75 -14.554688 3.75 -14.046875 L 3.75 -8.53125 L 9.9375 -8.53125 L 9.9375 -14.046875 C 9.9375 -14.554688 9.910156 -14.9375 9.859375 -15.1875 C 9.804688 -15.4375 9.703125 -15.609375 9.546875 -15.703125 C 9.390625 -15.796875 9.144531 -15.84375 8.8125 -15.84375 L 8.234375 -15.84375 L 8.234375 -16.0625 L 13.03125 -16.0625 L 13.03125 -15.84375 L 12.46875 -15.84375 C 12.132812 -15.84375 11.890625 -15.796875 11.734375 -15.703125 C 11.578125 -15.609375 11.472656 -15.4375 11.421875 -15.1875 C 11.367188 -14.9375 11.34375 -14.554688 11.34375 -14.046875 L 11.34375 -2.03125 C 11.34375 -1.519531 11.367188 -1.132812 11.421875 -0.875 C 11.472656 -0.625 11.578125 -0.453125 11.734375 -0.359375 C 11.890625 -0.265625 12.132812 -0.21875 12.46875 -0.21875 L 13.03125 -0.21875 L 13.03125 0 L 8.234375 0 L 8.234375 -0.21875 L 8.8125 -0.21875 C 9.144531 -0.21875 9.390625 -0.265625 9.546875 -0.359375 C 9.703125 -0.453125 9.804688 -0.625 9.859375 -0.875 C 9.910156 -1.132812 9.9375 -1.523438 9.9375 -2.046875 L 9.9375 -8.296875 L 3.75 -8.296875 L 3.75 -2.03125 C 3.75 -1.519531 3.773438 -1.132812 3.828125 -0.875 C 3.890625 -0.625 4 -0.453125 4.15625 -0.359375 C 4.3125 -0.265625 4.550781 -0.21875 4.875 -0.21875 L 5.484375 -0.21875 L 5.484375 0 Z M 0.75 0 "/></g></g></g><g fill="#000000" fill-opacity="1"><g transform="translate(148.291327, 269.931397)"><g><path d="M 0 0 L 0 -0.21875 L 0.609375 -0.21875 C 0.992188 -0.21875 1.269531 -0.332031 1.4375 -0.5625 C 1.613281 -0.789062 1.800781 -1.285156 2 -2.046875 L 5.671875 -16.0625 L 6.609375 -16.0625 L 10.734375 -1.171875 C 10.835938 -0.773438 10.960938 -0.515625 11.109375 -0.390625 C 11.265625 -0.273438 11.53125 -0.21875 11.90625 -0.21875 L 12.0625 -0.21875 L 12.0625 0 L 7.734375 0 L 7.734375 -0.21875 L 8.296875 -0.21875 C 8.753906 -0.21875 9.046875 -0.269531 9.171875 -0.375 C 9.304688 -0.488281 9.375 -0.640625 9.375 -0.828125 C 9.375 -0.992188 9.335938 -1.203125 9.265625 -1.453125 C 9.191406 -1.710938 9.117188 -1.976562 9.046875 -2.25 L 8.125 -5.84375 L 3.234375 -5.84375 L 2.40625 -2.65625 C 2.3125 -2.320312 2.222656 -1.984375 2.140625 -1.640625 C 2.066406 -1.296875 2.03125 -1.035156 2.03125 -0.859375 C 2.03125 -0.628906 2.101562 -0.460938 2.25 -0.359375 C 2.394531 -0.265625 2.679688 -0.21875 3.109375 -0.21875 L 3.9375 -0.21875 L 3.9375 0 Z M 3.3125 -6.078125 L 8.0625 -6.078125 L 6.640625 -11.5 C 6.347656 -12.582031 6.132812 -13.390625 6 -13.921875 C 5.875 -14.453125 5.765625 -14.910156 5.671875 -15.296875 C 5.597656 -14.972656 5.53125 -14.679688 5.46875 -14.421875 C 5.40625 -14.171875 5.335938 -13.898438 5.265625 -13.609375 C 5.203125 -13.328125 5.113281 -12.96875 5 -12.53125 Z M 3.3125 -6.078125 "/></g></g></g><g fill="#000000" fill-opacity="1"><g transform="translate(164.686749, 269.931397)"><g><path d="M 0.71875 0 L 0.71875 -0.21875 L 1.140625 -0.21875 C 1.492188 -0.21875 1.753906 -0.257812 1.921875 -0.34375 C 2.097656 -0.425781 2.21875 -0.601562 2.28125 -0.875 C 2.351562 -1.144531 2.390625 -1.550781 2.390625 -2.09375 L 2.390625 -13.96875 C 2.390625 -14.53125 2.351562 -14.941406 2.28125 -15.203125 C 2.21875 -15.460938 2.097656 -15.632812 1.921875 -15.71875 C 1.753906 -15.800781 1.492188 -15.84375 1.140625 -15.84375 L 0.71875 -15.84375 L 0.71875 -16.0625 L 5.515625 -16.0625 L 5.515625 -15.84375 L 5 -15.84375 C 4.664062 -15.84375 4.40625 -15.800781 4.21875 -15.71875 C 4.039062 -15.632812 3.914062 -15.460938 3.84375 -15.203125 C 3.78125 -14.941406 3.75 -14.546875 3.75 -14.015625 L 3.75 -0.21875 L 7.671875 -0.21875 C 8.429688 -0.21875 8.9375 -0.359375 9.1875 -0.640625 C 9.445312 -0.929688 9.59375 -1.46875 9.625 -2.25 L 9.71875 -4.703125 L 9.9375 -4.703125 L 9.828125 0 Z M 0.71875 0 "/></g></g></g><g fill="#000000" fill-opacity="1"><g transform="translate(179.71038, 269.931397)"><g><path d="M 4.5 0.21875 C 3.625 0.21875 2.925781 0.0546875 2.40625 -0.265625 C 1.882812 -0.585938 1.503906 -0.984375 1.265625 -1.453125 C 1.035156 -1.921875 0.921875 -2.375 0.921875 -2.8125 C 0.921875 -3.15625 1.003906 -3.453125 1.171875 -3.703125 C 1.335938 -3.960938 1.582031 -4.09375 1.90625 -4.09375 C 1.90625 -2.875 2.117188 -1.882812 2.546875 -1.125 C 2.972656 -0.375 3.691406 0 4.703125 0 C 5.523438 0 6.164062 -0.273438 6.625 -0.828125 C 7.082031 -1.390625 7.3125 -2.253906 7.3125 -3.421875 C 7.3125 -4.203125 7.195312 -4.828125 6.96875 -5.296875 C 6.75 -5.765625 6.410156 -6.175781 5.953125 -6.53125 C 5.503906 -6.882812 4.945312 -7.265625 4.28125 -7.671875 C 3.332031 -8.222656 2.59375 -8.851562 2.0625 -9.5625 C 1.539062 -10.269531 1.28125 -11.175781 1.28125 -12.28125 C 1.28125 -13.507812 1.601562 -14.484375 2.25 -15.203125 C 2.90625 -15.929688 3.78125 -16.296875 4.875 -16.296875 C 5.582031 -16.296875 6.164062 -16.160156 6.625 -15.890625 C 7.09375 -15.628906 7.445312 -15.300781 7.6875 -14.90625 C 7.9375 -14.507812 8.0625 -14.109375 8.0625 -13.703125 C 8.0625 -12.960938 7.707031 -12.59375 7 -12.59375 C 7 -14.90625 6.25 -16.0625 4.75 -16.0625 C 4.007812 -16.0625 3.425781 -15.773438 3 -15.203125 C 2.570312 -14.640625 2.359375 -13.832031 2.359375 -12.78125 C 2.359375 -12.0625 2.46875 -11.472656 2.6875 -11.015625 C 2.90625 -10.554688 3.222656 -10.15625 3.640625 -9.8125 C 4.066406 -9.476562 4.585938 -9.125 5.203125 -8.75 C 5.816406 -8.363281 6.363281 -7.972656 6.84375 -7.578125 C 7.320312 -7.191406 7.695312 -6.722656 7.96875 -6.171875 C 8.25 -5.628906 8.390625 -4.914062 8.390625 -4.03125 C 8.390625 -2.707031 8.0625 -1.664062 7.40625 -0.90625 C 6.757812 -0.15625 5.789062 0.21875 4.5 0.21875 Z M 4.5 0.21875 "/></g></g></g><g fill="#000000" fill-opacity="1"><g transform="translate(193.294756, 269.931397)"><g/></g></g><g fill="#000000" fill-opacity="1"><g transform="translate(201.571878, 269.931397)"><g><path d="M 0.71875 0 L 0.71875 -0.21875 L 1.234375 -0.21875 C 1.734375 -0.21875 2.050781 -0.332031 2.1875 -0.5625 C 2.320312 -0.789062 2.390625 -1.300781 2.390625 -2.09375 L 2.390625 -14.046875 C 2.390625 -14.566406 2.359375 -14.953125 2.296875 -15.203125 C 2.234375 -15.460938 2.113281 -15.632812 1.9375 -15.71875 C 1.769531 -15.800781 1.53125 -15.84375 1.21875 -15.84375 L 0.71875 -15.84375 L 0.71875 -16.0625 L 5.328125 -16.0625 C 6.785156 -16.0625 7.875 -15.742188 8.59375 -15.109375 C 9.3125 -14.484375 9.671875 -13.507812 9.671875 -12.1875 C 9.671875 -11.050781 9.40625 -10.191406 8.875 -9.609375 C 8.34375 -9.023438 7.617188 -8.664062 6.703125 -8.53125 L 6.703125 -8.484375 C 7.816406 -8.378906 8.671875 -8.003906 9.265625 -7.359375 C 9.867188 -6.710938 10.171875 -5.691406 10.171875 -4.296875 C 10.171875 -2.859375 9.8125 -1.78125 9.09375 -1.0625 C 8.382812 -0.351562 7.296875 0 5.828125 0 Z M 3.734375 -8.546875 L 5.265625 -8.546875 C 6.398438 -8.546875 7.1875 -8.867188 7.625 -9.515625 C 8.0625 -10.160156 8.28125 -11.0625 8.28125 -12.21875 C 8.28125 -13.445312 8.054688 -14.359375 7.609375 -14.953125 C 7.171875 -15.546875 6.421875 -15.84375 5.359375 -15.84375 L 3.734375 -15.84375 Z M 3.734375 -0.21875 L 5.734375 -0.21875 C 6.859375 -0.21875 7.640625 -0.535156 8.078125 -1.171875 C 8.523438 -1.816406 8.75 -2.851562 8.75 -4.28125 C 8.75 -5.59375 8.535156 -6.59375 8.109375 -7.28125 C 7.679688 -7.976562 6.898438 -8.328125 5.765625 -8.328125 L 3.734375 -8.328125 Z M 3.734375 -0.21875 "/></g></g></g><g fill="#000000" fill-opacity="1"><g transform="translate(217.247674, 269.931397)"><g><path d="M 0.71875 0 L 0.71875 -0.21875 L 1.140625 -0.21875 C 1.472656 -0.21875 1.726562 -0.257812 1.90625 -0.34375 C 2.09375 -0.425781 2.21875 -0.59375 2.28125 -0.84375 C 2.351562 -1.101562 2.390625 -1.503906 2.390625 -2.046875 L 2.390625 -13.96875 C 2.390625 -14.53125 2.351562 -14.941406 2.28125 -15.203125 C 2.21875 -15.460938 2.097656 -15.632812 1.921875 -15.71875 C 1.753906 -15.800781 1.492188 -15.84375 1.140625 -15.84375 L 0.71875 -15.84375 L 0.71875 -16.0625 L 9.25 -16.0625 L 9.359375 -12.265625 L 9.140625 -12.265625 L 9.09375 -13.5625 C 9.0625 -14.207031 8.984375 -14.691406 8.859375 -15.015625 C 8.742188 -15.335938 8.535156 -15.554688 8.234375 -15.671875 C 7.929688 -15.785156 7.488281 -15.84375 6.90625 -15.84375 L 3.734375 -15.84375 L 3.734375 -8.53125 L 8.140625 -8.53125 L 8.140625 -8.296875 L 3.734375 -8.296875 L 3.71875 -0.21875 L 7.53125 -0.21875 C 8.09375 -0.21875 8.519531 -0.265625 8.8125 -0.359375 C 9.101562 -0.460938 9.300781 -0.648438 9.40625 -0.921875 C 9.519531 -1.203125 9.59375 -1.613281 9.625 -2.15625 L 9.71875 -3.796875 L 9.9375 -3.796875 L 9.828125 0 Z M 0.71875 0 "/></g></g></g><g fill="#000000" fill-opacity="1"><g transform="translate(232.293793, 269.931397)"><g><path d="M 0 0 L 0 -0.21875 L 0.609375 -0.21875 C 0.992188 -0.21875 1.269531 -0.332031 1.4375 -0.5625 C 1.613281 -0.789062 1.800781 -1.285156 2 -2.046875 L 5.671875 -16.0625 L 6.609375 -16.0625 L 10.734375 -1.171875 C 10.835938 -0.773438 10.960938 -0.515625 11.109375 -0.390625 C 11.265625 -0.273438 11.53125 -0.21875 11.90625 -0.21875 L 12.0625 -0.21875 L 12.0625 0 L 7.734375 0 L 7.734375 -0.21875 L 8.296875 -0.21875 C 8.753906 -0.21875 9.046875 -0.269531 9.171875 -0.375 C 9.304688 -0.488281 9.375 -0.640625 9.375 -0.828125 C 9.375 -0.992188 9.335938 -1.203125 9.265625 -1.453125 C 9.191406 -1.710938 9.117188 -1.976562 9.046875 -2.25 L 8.125 -5.84375 L 3.234375 -5.84375 L 2.40625 -2.65625 C 2.3125 -2.320312 2.222656 -1.984375 2.140625 -1.640625 C 2.066406 -1.296875 2.03125 -1.035156 2.03125 -0.859375 C 2.03125 -0.628906 2.101562 -0.460938 2.25 -0.359375 C 2.394531 -0.265625 2.679688 -0.21875 3.109375 -0.21875 L 3.9375 -0.21875 L 3.9375 0 Z M 3.3125 -6.078125 L 8.0625 -6.078125 L 6.640625 -11.5 C 6.347656 -12.582031 6.132812 -13.390625 6 -13.921875 C 5.875 -14.453125 5.765625 -14.910156 5.671875 -15.296875 C 5.597656 -14.972656 5.53125 -14.679688 5.46875 -14.421875 C 5.40625 -14.171875 5.335938 -13.898438 5.265625 -13.609375 C 5.203125 -13.328125 5.113281 -12.96875 5 -12.53125 Z M 3.3125 -6.078125 "/></g></g></g><g fill="#000000" fill-opacity="1"><g transform="translate(248.689215, 269.931397)"><g><path d="M 6.203125 0.21875 C 4.921875 0.21875 3.882812 -0.164062 3.09375 -0.9375 C 2.300781 -1.71875 1.90625 -3.019531 1.90625 -4.84375 L 1.90625 -14.0625 C 1.90625 -14.582031 1.867188 -14.96875 1.796875 -15.21875 C 1.734375 -15.46875 1.613281 -15.632812 1.4375 -15.71875 C 1.257812 -15.800781 1.003906 -15.84375 0.671875 -15.84375 L 0.25 -15.84375 L 0.25 -16.0625 L 5.046875 -16.0625 L 5.046875 -15.84375 L 4.515625 -15.84375 C 4.191406 -15.84375 3.9375 -15.800781 3.75 -15.71875 C 3.570312 -15.632812 3.445312 -15.460938 3.375 -15.203125 C 3.3125 -14.941406 3.28125 -14.539062 3.28125 -14 L 3.28125 -4.4375 C 3.28125 -2.851562 3.566406 -1.738281 4.140625 -1.09375 C 4.710938 -0.457031 5.476562 -0.140625 6.4375 -0.140625 C 7.332031 -0.140625 8.039062 -0.328125 8.5625 -0.703125 C 9.082031 -1.085938 9.445312 -1.613281 9.65625 -2.28125 C 9.863281 -2.945312 9.96875 -3.722656 9.96875 -4.609375 L 9.96875 -14.046875 C 9.96875 -14.566406 9.929688 -14.953125 9.859375 -15.203125 C 9.796875 -15.460938 9.671875 -15.632812 9.484375 -15.71875 C 9.304688 -15.800781 9.046875 -15.84375 8.703125 -15.84375 L 7.828125 -15.84375 L 7.828125 -16.0625 L 12.078125 -16.0625 L 12.078125 -15.84375 L 11.359375 -15.84375 C 11.046875 -15.84375 10.800781 -15.800781 10.625 -15.71875 C 10.457031 -15.632812 10.34375 -15.460938 10.28125 -15.203125 C 10.21875 -14.941406 10.1875 -14.539062 10.1875 -14 L 10.1875 -4.5625 C 10.1875 -3.050781 9.875 -1.875 9.25 -1.03125 C 8.632812 -0.195312 7.617188 0.21875 6.203125 0.21875 Z M 6.203125 0.21875 "/></g></g></g><g fill="#000000" fill-opacity="1"><g transform="translate(265.376977, 269.931397)"><g><path d="M 2.5625 0 L 2.5625 -0.21875 L 3.3125 -0.21875 C 3.65625 -0.21875 3.914062 -0.265625 4.09375 -0.359375 C 4.269531 -0.453125 4.390625 -0.628906 4.453125 -0.890625 C 4.515625 -1.148438 4.546875 -1.550781 4.546875 -2.09375 L 4.546875 -15.84375 L 2.59375 -15.84375 C 1.84375 -15.84375 1.347656 -15.707031 1.109375 -15.4375 C 0.867188 -15.164062 0.734375 -14.65625 0.703125 -13.90625 L 0.625 -12.4375 L 0.40625 -12.4375 L 0.546875 -16.0625 L 9.96875 -16.0625 L 10.109375 -12.4375 L 9.875 -12.4375 L 9.8125 -13.90625 C 9.769531 -14.65625 9.628906 -15.164062 9.390625 -15.4375 C 9.160156 -15.707031 8.671875 -15.84375 7.921875 -15.84375 L 5.921875 -15.84375 L 5.921875 -2.09375 C 5.921875 -1.550781 5.945312 -1.148438 6 -0.890625 C 6.050781 -0.628906 6.164062 -0.453125 6.34375 -0.359375 C 6.519531 -0.265625 6.789062 -0.21875 7.15625 -0.21875 L 7.875 -0.21875 L 7.875 0 Z M 2.5625 0 "/></g></g></g><g fill="#000000" fill-opacity="1"><g transform="translate(280.243172, 269.931397)"><g><path d="M 2.71875 0 L 2.71875 -0.21875 L 3.359375 -0.21875 C 3.710938 -0.21875 3.976562 -0.265625 4.15625 -0.359375 C 4.34375 -0.453125 4.460938 -0.628906 4.515625 -0.890625 C 4.578125 -1.148438 4.609375 -1.550781 4.609375 -2.09375 L 4.609375 -7.6875 L 1.28125 -14.828125 C 1.070312 -15.273438 0.878906 -15.554688 0.703125 -15.671875 C 0.535156 -15.785156 0.304688 -15.84375 0.015625 -15.84375 L -0.109375 -15.84375 L -0.109375 -16.0625 L 4.203125 -16.0625 L 4.203125 -15.84375 L 3.640625 -15.84375 C 3.222656 -15.84375 2.945312 -15.800781 2.8125 -15.71875 C 2.6875 -15.644531 2.625 -15.535156 2.625 -15.390625 C 2.625 -15.265625 2.65625 -15.113281 2.71875 -14.9375 C 2.789062 -14.757812 2.894531 -14.53125 3.03125 -14.25 L 4.640625 -10.640625 C 4.847656 -10.171875 5.046875 -9.734375 5.234375 -9.328125 C 5.421875 -8.929688 5.625 -8.476562 5.84375 -7.96875 C 5.945312 -8.1875 6.082031 -8.484375 6.25 -8.859375 C 6.414062 -9.234375 6.585938 -9.617188 6.765625 -10.015625 L 8.65625 -14.28125 C 8.8125 -14.632812 8.90625 -14.875 8.9375 -15 C 8.976562 -15.132812 9 -15.265625 9 -15.390625 C 9 -15.535156 8.945312 -15.644531 8.84375 -15.71875 C 8.738281 -15.800781 8.488281 -15.84375 8.09375 -15.84375 L 6.9375 -15.84375 L 6.9375 -16.0625 L 10.625 -16.0625 L 10.625 -15.84375 L 10.4375 -15.84375 C 10.082031 -15.84375 9.835938 -15.789062 9.703125 -15.6875 C 9.566406 -15.582031 9.394531 -15.3125 9.1875 -14.875 L 5.984375 -7.8125 L 5.984375 -2.09375 C 5.984375 -1.550781 6.007812 -1.148438 6.0625 -0.890625 C 6.113281 -0.628906 6.222656 -0.453125 6.390625 -0.359375 C 6.566406 -0.265625 6.835938 -0.21875 7.203125 -0.21875 L 7.859375 -0.21875 L 7.859375 0 Z M 2.71875 0 "/></g></g></g></svg>