<?xml version="1.0" encoding="utf-8"?>
<!-- Generator: Adobe Illustrator 27.2.0, SVG Export Plug-In . SVG Version: 6.00 Build 0)  -->
<svg version="1.1" id="Layer_1" xmlns="http://www.w3.org/2000/svg" xmlns:xlink="http://www.w3.org/1999/xlink" x="0px" y="0px"
	 viewBox="0 0 892.1 384.33" style="enable-background:new 0 0 892.1 384.33;" xml:space="preserve">
<style type="text/css">
	.st0{fill:#111987;}
	.st1{fill:#EA0029;}
	.st2{fill:#FFFFFF;}
</style>
<polyline class="st0" points="304.88,299.84 304.25,300.06 304.31,299.88 304.88,299.84 "/>
<path class="st0" d="M352.69,290.52c0.63-0.22,0.48,0.07,0.59,0.07C352.7,290.71,353.47,290.35,352.69,290.52"/>
<path class="st0" d="M323.87,178.8c-1.03,1.04-3.62,0.99-3.62,0.99h-68.48v-64.13h52.12c4.75,0,10.88,1.13,14.86,5.02
	c5.67,5.4,6.14,11.42,6.14,21.96v32.95C324.9,175.59,324.8,177.86,323.87,178.8 M303.59,165.49v-26.61c0-2.13-0.31-5.52-0.77-6.78
	c-0.45-1.26-1.99-1.76-3.07-1.76h-26.66v35.14H303.59z"/>
<path class="st0" d="M392.97,179.79v-37.15c0-10.54-0.46-16.56-6.13-21.96c-3.99-3.89-10.12-5.02-14.87-5.02h-41.69v15.18h37.09
	c1.07,0,2.6,0.5,3.06,1.76c0.47,1.25,0.77,4.64,0.77,6.78v40.41H392.97"/>
<path class="st0" d="M656.35,179.79v-37.15c0-10.54-0.46-16.56-6.13-21.96c-3.99-3.89-10.12-5.02-14.88-5.02h-42.5v15.18h37.9
	c1.08,0,2.61,0.5,3.07,1.76c0.46,1.25,0.77,4.64,0.77,6.78v40.41H656.35"/>
<rect x="744.05" y="115.66" class="st0" width="21.77" height="64.13"/>
<rect x="568.69" y="143.56" class="st0" width="21.02" height="13.98"/>
<path class="st0" d="M830.54,148.45c0,12-3.08,19.48-17.82,19.46c-8.7-0.02-15.22-7.61-15.22-19.47v-19.05
	c0-0.09,20.26,0.07,24.05,0.13C831.46,129.68,830.54,136.19,830.54,148.45 M852.11,148.28c0-22.35,0.89-33.59-21.18-33.59h-54.92
	c-0.42,3.66,0.31,26.66,0.31,37.77c0,20.12,19.77,30.44,37.83,30.44C836.92,182.9,852.11,170.23,852.11,148.28"/>
<path class="st0" d="M521.83,127.76c-14.89,0-15.06,17.49-11.31,25.9h-22.03c-8.86-25.57,8.22-40.76,33.34-40.76
	c28.5,0,38,15.63,36.61,38.04c-1.45,23.41-17.17,28.85-38.29,28.85l-31.06-0.12l-0.02-15.1h25.45c12.32,0,21.85-2.97,21.85-15.91
	C536.37,138.51,534.19,127.76,521.83,127.76"/>
<path class="st0" d="M483.26,180.19c-4.9-6.9-10.66-13.99-17.09-21.02c1.77,0.23,4.89-2.19,6.02-3.56
	c5.86-6.03,6.63-25.94,6.63-39.29v-0.25h-22.99v0.76c0,8.03,0.81,23.7-2.71,29.47c-7.21-7.91-22.28-24.58-28.72-30.23h-24.69
	c5.83,5.15,9.66,9.27,15.8,15.42c-13.46,0.1-13.04,28.51-13.04,47.83v0.87h21.62v-2c0-16.19,1.59-28.83,4.5-33.48
	c6.44,6.9,23.09,25.19,30.91,35.48H483.26"/>
<path class="st0" d="M699.09,127.76c-14.89,0-15.06,17.49-11.31,25.9h-22.03c-8.86-25.57,8.2-40.76,33.34-40.76
	c28.5,0,38,15.63,36.61,38.04c-1.46,23.41-17.16,28.85-38.3,28.85l-31.05-0.12l-0.03-15.1h25.46c12.32,0,21.84-2.97,21.84-15.91
	C713.62,138.51,711.45,127.76,699.09,127.76"/>
<path class="st1" d="M91.74,250.86c-29.83,0-54.01-16.01-54.02-44.71c-0.01-24.46,10.73-37.61,10.12-62.15
	c-0.53-21.31-9.58-30.72-10.12-53.72c-0.58-24.66,24.19-44.71,54.02-44.71h82.35c29.83,0,54.59,20.05,54.02,44.71
	c-0.53,23-9.59,32.4-10.11,53.72c-0.62,24.55,10.13,37.69,10.11,62.15c-0.01,28.7-24.19,44.71-54.02,44.71H91.74"/>
<path class="st2" d="M170.83,174.67c2.91,2.75,12.48,9.6,15.5,14.76c7.15,12.05-1.85,16.66-15.1,19.95c0,0-23.78,4.07-42.03,3.94
	c-24.21-0.16-64.73-3.46-55.78-25.67c6.11-15.15,35.41-18.15,37.98-17.73c2.86,0.46,2.25,2.46-2.16,4.42
	c-27.38,15.48,3.03,16.08,3.03,16.08l33.34,0.22c3.68-0.51-0.6-3.24-1.04-3.76l-44.9-37.03c-5-4.64-17.02-16.61-19.05-21.61
	c-4.16-14.11,18.4-17.73,48.55-18.2c24.66-0.39,57.57,0.06,62.73,12.88c6.08,15.07-18.15,28.4-37.03,30.82
	c-2.42,0.31-2.99,0.49-4.38-0.53c-2.77-2.01,4.8-4.5,6.7-5.68c24.18-13.74-6.62-13.94-6.62-13.94s-23.28-0.29-31.13-0.09
	c-1.55,0.04-2.96,0.19-1.87,1.24c2.1,2,2.97,2.6,5,4.1L170.83,174.67"/>
<path class="st2" d="M126.94,79.37l8.57-4.81c10.29-5.78,21.44-5.8,24.89-0.02c3.47,5.77-2.07,15.15-12.36,20.93l-8.56,4.81
	c-10.29,5.78-21.43,5.8-24.89,0.02C111.12,94.52,116.65,85.15,126.94,79.37"/>
<path class="st2" d="M649.55,250.35c-6.36,0.85-14.71,0-21.63,0.94c-0.81,0.09,0.18-0.64-1.64-0.41
	c-6.68,1.17-17.28,1.18-25.51,1.03l0.48-0.21c-1.57-0.03-3.43,0.69-5.09,0.72c-0.02-0.12,0.52-0.2,0.12-0.35
	c-0.39,0.39-2.97,0.37-3.65,0.68c-0.66-0.1-0.62-0.38-1.47-0.48l-0.92,0.47c-2.55,1.14-6.38,0.35-9.93,1.09
	c0.16-0.1,0.52-0.2,0.22-0.27c-5.7,1.03-12.89,1.56-19.29,2.3c0.24-0.16,0.45-0.44,0.06-0.57c-0.28,0.45-2.25,0.73-3.96,0.96
	c-0.82-0.37-2.91,0.64-4.95,0.59l0.16-0.11c-1.43,0.61-2.23-0.04-3.38,0.63l-0.98-0.25c-0.59,0.68-2.19-0.1-3.39,0.34l0.06,0.12
	c-1.14,0.27-1.78,0.02-2.84,0.24l-0.11-0.06c-2.5,0.42-4,0.22-3.89,0.7c-0.93-0.3,2.42-0.43,0.97-0.85
	c-8.24,1.3-16.78,2.14-25.1,3.2c-0.97-0.08-1.58-0.07-1.82-0.22c-0.82,0.2-3.12,0.46-3.84,0.8c0.28-0.05-0.57-0.18-1.01-0.15
	c-1.54,0-1.58,0.73-3.27,0.71c0.64-0.21,0.85-0.39,0.6-0.54c-1.36,0.54-3.27,0.71-4.93,1.03c0.25-0.11,0.65-0.21,0.56-0.35
	c-1.78,0.63-3.35,0.35-4.92,0.83l0.56-0.36c-2.64,0.02-0.68,0.69-2.94,0.8c0.52-0.16,0.32-0.25,0.4-0.37
	c-2.01,0.79-5.4,1.09-7.45,1.54l0.07-0.13c-2.25,0.37-4.64,0.54-7.1,1.1c-0.93,0,0.19-0.72-2.19-0.29c0.18,0.55-4.03,0.79-2.51,1.22
	c-2.06,0.18-5.33,0.44-6.65,0.85c0.88-0.35-1.11-0.53,0.58-0.84l-1.34-0.14c0.15-0.26,1.34-0.12,0.88-0.35
	c-0.85,0.15-3.28,0.75-4.06,0.78c-1.52,0.59-2.86,1.44-5.39,1.9c1.16-0.4-0.79-0.51,0.01-0.73l-3.37,1.61
	c-0.84,0.15-0.26-0.41-1.46-0.08c0.08,0.14-0.43,0.31-0.78,0.49c-0.33-0.01-3.5,0.68-3.97,0.19c-0.42-0.16,1.36-0.33,0.39-0.38
	c-1.56,0.24-1.6,0.44-3.17,0.69l-0.04-0.07c-1.05,0.08-3.01,0.7-1.83,0.83c0.72-0.09-0.33-0.29,0.76-0.29
	c-0.67,0.44-2.48,0.78-4.04,1.07c0.51-0.18,0.42-0.31,0.61-0.5c-2.02,0.79-4.22,1.3-6.53,1.87c0.01,0.27,0.79-0.62,1.16-0.54
	c-3.07,0.15-6.1,1.56-8.7,1.46c0.4-0.12,0.29,0.34,0.25,0.27c-1.45,0.21-1.46-0.18-2.37,0.12c-0.14-0.2-1.17,0.28-2.13,0.5
	c-0.47,0.25-0.28-0.06,0.56-0.23c-1.31,0.42-6.66,1.67-9.84,1.88c0.09,0.13-1.81,0.88-2.52,1l0.21-0.39
	c-0.7-0.08-2.39,0.48-2.57,0.2c-1.44,0.7,5.82-1.45,3.81-0.74c-0.59-0.19-2.77,1.08-2.42,0.53c-1.44,0.28-2.75,0.92-4.19,0.86
	c0.41-0.02,1.07-0.69-0.08-0.45c-2.03,0.44-0.55,0.27-2.19,0.69l-1.01,0.34c0,0.34-1.84,0.29-1,0.52c-0.31-0.23-2.93,0.72-2.84,0.13
	l0.2-0.49c-0.88,0.2-1.35,0.73-2,1.05c-0.12-0.02-0.38-0.06-0.34-0.14c0,0.69-2.12,0.34-3.07,1.04c-1.9,0.11-4.71,0.86-5.67,0.61
	c-1.38,0.47-2.63,0.95-4.28,1.1c0.31-0.12,0.75-0.22,0.81-0.38c-1.06-0.01-1.28,0.22-2.18,0.51c0.19-0.14-2.12,0.03-3.3,0.02
	c-1.37,0.48-0.8,0.74-0.9,0.99c-1.43-0.39-3.89,1.22-5.64,0.96c0.47-0.19,1.99-0.74,0.78-0.66c-1.44-0.39-2.49,1.01-4.64,1.11
	l0.63,0.44c-1-0.15-2.99,0.93-2.9,0.34c-0.65,0.33-2.49,0.32-2.14,0.8c-3.52,0.24-8.24,1.95-10.56,1.43
	c-0.47,0.18-1.71,0.37-1.4,0.58c0.88,0.12,1.08-0.46,1.44-0.32c-0.44,0.1-0.5,0.27-0.53,0.35c-1.09,0.11-1.93,0.25-1.03-0.4
	c-2.43,0.19-2.21,1.42-5.26,1.87c0.08-0.24-0.16-0.28-1.03-0.05l-1.57,0.74c-1.96,0.33-1.22-0.25-1.36-0.61
	c-1.02,0.29-2.29,0.55-2.69,0.92l-1.37-0.19c1,0.14-0.8,0.41-1.26,0.6l0.46-0.2c-0.23-0.12-1.4,0.24-2,0.42
	c0.2,0.2,1.45,0.02,2.13-0.06c-0.49,0.28-1.32,0.42-1.98,0.76c0.14-0.41-1.75,0.11-2.58,0.25c-0.96,0.12-0.98,0.55-1.26,0.6
	c-0.07-0.18-1.55,0.3-0.88-0.12c0.31-0.13,0.78,0.02,1.27-0.26c-0.65,0-0.66-0.35-1.9,0.18c-0.93,0.39,0.43,0.65-1.47,0.83
	c0.46-0.2,0.51-0.36,0.86-0.57l-1.77,0.19l0.01,0.35c-0.25-0.04-0.1-0.1-0.22-0.12c-0.43,0.46-2.61,0.68-2.9,1.16
	c-0.86,0.22-1.89,0.17-2.73,0.32l0.15-0.07c-1.06,0.05-2.38,0.49-3.17,0.9l0.03-0.08c-0.56,0.1-1.85,0.46-2.5,0.82
	c-1.46,0.07-0.79-1.13-2.23-0.35c-1.42,0.34-2.06,1.12-1.44,1.2c-2.6,0.37-5.36,1.59-7.86,1.63c-0.33,0.22-0.08,0.25-0.81,0.5
	c-3.78,0.74-7.8,2.24-10.95,2.29c1.04-0.39-0.02-0.34-0.09-0.53c-0.82,0.5-1.16-0.05-1.35,0.52c0.17,0.28,0.12,0.44,1.21,0.31
	c-2.19,0.67-5.57,1.55-6.88,1.57c0.65-0.02,0.2,0.19-0.26,0.4c0.03-0.51-1.63-0.18-2.83,0.3l-0.09,0.33l-0.89-0.09
	c-0.45,0.21-0.36,0.73-1.66,0.77c-0.1-0.1-0.2-0.19-0.45-0.22c-1.22,0.56-2.92,1.4-4.38,1.51l-1.26-0.14
	c-0.58,0.2-1.51,0.7-0.43,0.56c-2.45,0.34-3.99,0.69-4.85,0.52c-3.85,1.9-9.78,3.4-14.53,4.63l0.08-0.25
	c-1.33,0.14-0.55,0.55-1.48,0.64c0.35-0.31-1.1-0.19-0.18-0.7c-1.89,0.26-2.24,1-3.39,1.41c-0.1,0.33,0.9-0.43,0.78-0.01
	c-0.17,0.15-2.59,0.45-2.74,0.95c-0.51-0.04-0.25-0.45-0.05-0.69l-1.05,0.5c-1.51-0.14,2.84-1.71,1.23-1.94l-1.01,0.34
	c-1.12-0.18,2.56-1.22-0.06-0.69c-1.06,0.51-1.83,1.37-0.77,1.3c-2.29,0.74-0.77,1.3-3.29,1.93c-0.76-0.07,1.99-0.59,1.4-0.81
	c-1.28-0.03-2.3,0.82-3.39,0.98c1.21-0.15,0.36,0.54-0.37,0.82c-1.33,0.14,0.71-0.62-1.11-0.18c-0.22,0.32-1.82,0.95-0.34,0.74
	c-0.48,0.73-1.92,0.34-2.77,1.03c-0.71-0.23,1.58-1.4-0.46-1.07c0.43,0.29-2.29,1.16-1.07,1.44c-0.81,0.1-0.98-0.18-0.49-0.56
	c-1.18,0.06-2.48,1.4-3.07,0.75l-0.27,0.48c-0.38-0.03-0.91,0-1.54-0.05c-0.98,0.25-2.97,1.4-3.07,0.79
	c-0.29,0.15-2.52,0.75-1.54,0.91c1.46-0.14,1.5-0.74,2.44-0.42c-1.12-0.16-1.97,0.62-2.72,0.99l-0.2-0.19
	c-0.45,0.22-1.56,0.48-1.78,0.81c0.33-0.23,0.09-0.33-0.31-0.28l-0.39,0.48c-1.88,0.71-0.64-0.47-2.49,0.16l1.34-0.67
	c-0.29,0.15-1.03,0-1.9,0.37c-0.25,0.41-0.79,0.96-1.01,1.29c-1.01,0.44-0.58-0.22-1.52,0.39l1.25-0.75
	c0.17-0.16-1.08-0.26-2.49,0.15c-0.87,0.36-2.13,1.2-0.65,0.98c-0.71,0.21-1.76,0.3-1.27-0.09c-1.57,0.56,0.32,0.28-1,0.86
	c-0.63-0.05-2.5,0.15-3.66,0.15l1.28-0.92l-0.96,0.26c1.11-0.77-0.74-0.14-0.18-0.78c-0.68,0.12-1.43,0.49-2.03,0.78
	c2.15,0.16-1.84,1.57-1.08,2.05c-2.58,0.92-2.15-1.1-4.58,0.68c0.5,0.04-0.63,0.89,0.97,0.24c-1.66,0.39-0.9,0.95-2.92,1.23
	c1.34-0.66-1.75-0.21,0.19-1.18c-0.07,0.25,1.21-0.16,1.5-0.31c-0.75-0.05-0.07-0.68-1.75-0.21c-1,0.35-2.4,0.76-2.09,1.04
	c0.16,0.35,1.55-0.48,1.01,0.07c-2,0.71-2.51,0.27-3.14,1.16c1.26-0.44,1.71-0.15,1.77,0.11l-1.44,0.6l0.21-0.33
	c-2.45,0.54-0.56,0.65-2.89,1.28l-1.25-0.16c0.41-0.58,3.43-0.82,2.79-1.37c-1.51,0.42-1.9,0.91-3.37,1.15l1.01-0.45
	c-0.55,0.14-1.38-0.6-3.35,0.56c-1.04,0.54-0.21,0.33-0.16,0.59c-2.39,0.8-3.03,1.27-4.57,1.77c0.15-0.59-2.77,0.77-1.22-0.25
	c0.89,0.06,4.37-1.01,5.07-1.74c-1.07-0.32,1.93-0.48,2.25-1.23c-1.94,0.56-2.04-0.04-2.48-0.33c-0.55,0.14-1.01,0.45-1.32,0.6
	c-0.11,0.42,0.59,0.21,0.76,0.56c-2.19,0.55-4.21,1.37-5.29,2.06c-0.78,0.04-0.67-0.38,0.17-0.67c-2.54,0.87-5.3,1.64-7.78,2.26
	c1.78,0.11-2.68,0.95-1.44,1.11c1.35-0.26,2.62-0.19,1.98,0.29c-0.83,0.2-0.06-0.26-0.44-0.29c-0.94,0.63-1.79-0.02-2.65,0.78
	c2.29-0.89,0.22-0.84,0.49-1.42c-1.61,0.76-0.04-0.35-1.72,0.15c-1.6,0.75-3.61,1.57-5.45,2.22c-2.5,0.31-5.95,1.86-8.04,2.53
	c-1.18,0.12-0.61-0.62-1.83-0.34c-1.39,0.45,1.23,0.23-0.92,0.64l0.17-0.17c-0.59,0.32-3.92,0.85-4.27,1.77l0.44-0.75l-1.01,0.47
	c-0.08-0.18-0.59-0.2,0-0.51c-1.41,0.02-2.66,0.9-4.04,1.35l1.01,0.05c-2.28,1-3.99,1.17-6.24,2.01l-0.04-0.34l-1.3,0.62
	c0.23-0.41-1.1-0.22-1.73,0.27l3.27-1.9c1.06-0.12-0.94,0.72-0.21,0.85c0.63,0.11,2.72-0.65,2.95-1.06
	c-0.83,0.22-0.84,0.3-1.43,0.61c-0.43-0.36,0.81-0.73,1.32-1.22c-0.42,0.15-1.08,0.21-1.12,0.38c0.76-0.48,1.59-0.78,2.99-1.23
	c-0.88,0.47,0.61,0.11,0.3,0.35c-0.03-0.43,1.26-0.96,3.03-1.39c1.39,0.06,3.13-1.31,5.18-1.81c-0.67,0.65-1.6,1.29-2.75,1.83
	c1.32-0.2,1.39-0.45,2.72-0.64c0.5-0.49,0.78-1.07,2.35-1.77l0.19,0.27c1.43-0.61,1.28-1.05,3.2-1.56c3.28-0.88,6.62-1.91,9.12-2.59
	l0.2,0.26c1.17-1.04,4.52-1.6,6.28-2.43c3.26-0.66,6.78-2.32,8.57-2.3c5.51-1.87,10.3-3.6,16.15-5.13l-0.84,0.7
	c0.94-0.61,0.76,0.06,1.76-0.3c-1.29-0.01,1.27-0.84,1.9-1.3c2.7-0.4,5.9-1.69,8.1-2.64l0.18,0.27c2.14-1.2,5.07-1.5,7.98-2.22
	c0.37,0.03,0.98,0.16,1.83-0.12c1.42-0.92,2.25-1.11,4.45-2.06c1.68-0.48,4.44-1.12,6.21-1.38c6.14-2.36,12.75-3.65,19.22-5.8
	l0.58,0.22c6.16-2.48,14.25-3.8,19.63-5.53l-0.36,0.73c1.77-0.24,3.87-1.13,3.32-1.45c1.78-0.25,4.22-1.36,5.45-1.15
	c1.79-0.33,2.08-0.81,3.52-1.26c3.59-0.65,4.88-1.03,8.17-1.97l-0.83,0.17c-0.33,0.22-0.29,0.48,0.55,0.32
	c1.19-0.49,4.62-0.92,3.18-1.35c3.68-0.42,8.22-2.28,11.84-2.53c-0.35-0.13,0.52-0.37,0.85-0.58c3.13-0.74,6.52-1.11,8.93-2.03
	c0.52-0.02-0.71,0.52,0.57,0.24c0.74-0.25-0.05-0.26,0.85-0.59c4.97-1.58,10.38-1.95,14.97-3.05c8.13-2.15,16.74-3.9,24.62-5.58
	l-0.06,0.17c2.52-1.09,6.34-0.69,8.26-1.95c0.66,0.01,2.4-0.42,2-0.05c2.02-0.82,5.99-0.82,8.92-1.94l-0.75,0.23
	c3.15-0.3,5.76-1.3,9.08-1.65c-0.32,0.12-0.91,0.29-0.97,0.45c1.32,0.03,2.85-1.17,3.69-0.6c0.72-0.14,0.44-0.45,0-0.35
	c7.19-1.05,14.71-2.92,22.11-4.46c5.41-0.57,0.56,1.11,4.66-0.18c0.38,0.07,0.2-0.31,0.28-0.17c1.59-0.48,2.7,0.35,3.75-0.21
	c-0.55-0.35,0.7-0.37,0.69-0.64c3.32-0.28,4.05,0,6.56-0.76l-0.15,0.26c2.9-1.16,6.46-1.4,8.87-2.58
	c16.64-2.89,32.58-5.84,48.92-8.11c16.16-2.15,31.98-4.36,48.49-5.81c3.93,0.21,4.22,0.16,8.43-0.52c-0.16,0.12-0.42,0.17-0.13,0.23
	c0.15-0.52,2.98-0.35,3.33-0.86c6.1-0.54,11.7-1.27,17.98-1.77c-0.99,0.14-1.45,0.58-0.27,0.45l1.2-0.42l0.22,0.12
	c0.8-0.14,1.66-0.46,0.81-0.55c15.73-1.87,31.38-1.86,46.85-2.93c3.69,0.01,8.89-0.5,12.91-0.76c11.91,0.05,22.63,0.41,34.83,0.43
	C656.21,248.95,654.53,250.19,649.55,250.35"/>
<g>
	<path class="st2" d="M161.8,325.9c-1.35,0.63-4.77,1.04-7.64,0.34c-0.75,2.08-1.91,5.34-2.47,6.76c-1.62,2.82-3.53,2.08-2.77-0.99
		c0.62-2.51,0.63-4.57,1.18-7.05c0.18-0.67,0.36-1.32,0.57-1.75c0.42-1.02,1.98-2.41,3.5-1.65c2.79,1.38,9.39,1.79,8.82-2.87
		c-0.41-4-5.87-6.33-10.65-3.58c-2.49,1.51-3.63-1.24-0.83-2.97c8.27-5.07,18.32,0.52,15.7,8.5
		C166.31,323.44,164.08,324.82,161.8,325.9"/>
	<path class="st2" d="M175.66,297.79c-0.63,6.23-0.85,20.81-3.47,25.15c-0.82,1.43-3.18,1.6-2.9-0.32c0.64-2.4,1.08-5.04,1.01-7.53
		c-0.13-3.2,1.12-11.33,1.08-18.31c0.04-3.35,4.66-2.66,4.5-0.47C175.76,297.66,175.88,295.01,175.66,297.79"/>
	<path class="st2" d="M205.53,259.2c-5.78,5.79-11.7,14.43-16.67,25.55c-2.05,4.75-4.57,13.13-5.92,21.29
		c-1.11,7.42,1.51,10.84,2.8,10.47c2.2-0.58,3.75-2.86,4.71-6.15c1.56-5.08,1.87-11.62,1.73-14.73c-0.2-2.62,1.54-2.55,2.54-0.16
		c0.84,1.98,1.09,4.5,1.14,6.74c0.01,3.88-0.48,7.88-2.25,11.79c-1.34,3.01-4.28,7.41-9.59,7.04c-4.53-0.26-6.05-5.13-6.25-8.39
		c-0.52-8.28,3.37-24.09,11-37.25c2.73-4.67,10.46-15.89,15.54-18.4c1.5-0.73,1.92,0.28,1.94,0.54
		C206.41,258.29,206.05,258.71,205.53,259.2"/>
</g>
<g>
	<path class="st2" d="M221.46,303.16c-1.94,1.61-4.13,0.38-2.68-1.34c2.15-2.52,4.87-6.89,4.48-11.64
		c-0.15-1.65-1.21-2.43-2.29-2.45c-2.16-0.02-4.01,0.8-5.43,2.9c-0.92,1.41-3.04,1-2.37-1.05c1.01-3.05,5.63-6.1,8.51-6.27
		c5.09-0.26,6.55,3.65,6.49,6.52C228.17,293.68,225.88,299.32,221.46,303.16"/>
	<path class="st2" d="M247.82,296.63c-1.1,1.42-3.01,2.67-4.8,2.58c-1.22,0-1.26-0.76-0.02-1.6c2.4-1.75,2.76-4.28,2.34-6.62
		c-0.13-0.82-0.89-2.92-1.89-3.89c-1.84-1.84-3.7-0.38-3.99,0.61c-1.22,4.29-3.46,10.05-6.06,13.44c-3.34,4.36-6.03,8.01-11.79,9.82
		c-2.34,0.74-5.03,0.72-6.75-0.99c-1.16-1.24,0.11-2.02,1.71-1.42c0.9,0.24,2.77,0.38,4.72-0.41c5.21-2.14,8.49-6.78,11.5-14.04
		c0.96-2.31,1.68-4.63,2.47-6.97c0.85-2.43,2.1-3.89,5-4.85c4.96-1.54,7.98,1.62,8.96,5.58
		C249.99,290.88,249.5,294.45,247.82,296.63"/>
	<path class="st2" d="M262.86,273.94c-1.85,5.98-4.94,20.22-8.36,23.98c-1.09,1.24-3.44,0.92-2.79-0.89
		c1.09-2.23,2.05-4.73,2.48-7.19c0.51-3.15,3.33-10.88,4.67-17.72c0.71-3.29,5.1-1.69,4.52,0.43
		C262.98,273.84,263.61,271.26,262.86,273.94"/>
	<path class="st2" d="M269.23,277.8c-1.14,2.08-1.59,4.96-4.1,6.49c-2.77,1.74-2.39-2.05-1.34-3.26c0.88-1.07,1.78-4.86,1.77-6.01
		l0.06-0.63c0.07-1.48,1.58-3.89,3.84-3.18c0.67,0.21,1.6,0.8,1.37,1.94C270.57,274.45,270.14,276.02,269.23,277.8"/>
</g>
<g>
	<path class="st2" d="M594.47,239.51c-2.18,1.27-4.14-0.31-2.42-1.76c2.53-2.14,5.93-6,6.32-10.75c0.13-1.66-0.79-2.6-1.86-2.79
		c-2.13-0.37-4.09,0.13-5.85,1.96c-1.14,1.24-3.15,0.49-2.16-1.41c1.49-2.84,6.55-5.1,9.42-4.8c5.07,0.58,5.87,4.67,5.35,7.49
		C602.63,231.25,599.45,236.44,594.47,239.51"/>
	<path class="st2" d="M618.23,236.64c-1.48,0.13-4.83-0.7-7.29-2.35c-1.41,1.69-3.64,4.34-4.66,5.47c-2.51,2.09-4.04,0.73-2.25-1.89
		c1.45-2.14,2.18-4.07,3.56-6.19c0.4-0.56,0.8-1.12,1.14-1.45c0.75-0.81,2.69-1.57,3.84-0.33c2.14,2.28,8.18,4.96,9.28,0.4
		c1.01-3.89-3.3-7.99-8.73-7.07c-2.87,0.55-2.97-2.42,0.26-3.08c9.52-1.87,16.99,6.88,11.75,13.45
		C623.31,235.9,620.74,236.42,618.23,236.64"/>
	<path class="st2" d="M642.79,238.44c-3.06,1.5-4.84,1.79-7.73,2.27c-2.42,0.4-6.2,0.03-9.65-2.29c-2.13-1.39-0.72-2.86,1.64-2.09
		c2.29,0.78,5.62,0.97,6.99,0.74c1.46-0.24,2.34-0.39,4.2-1.11c5.23-1.94,9.53-5.96,8.75-9.64c-0.53-2.23-4.47-2.99-9.28-1.11
		c-1.63,0.68-4.44,1.15-2.92-1.17c1.64-2.51,7.13-3.83,8.69-3.92c4.25-0.29,8.74,1.28,9.12,5.6
		C653.13,231.44,647.7,236.14,642.79,238.44"/>
</g>
<g>
	<path class="st2" d="M429.24,235.14c-2.01,5.93-5.47,20.09-8.99,23.75c-1.13,1.21-3.47,0.83-2.76-0.97
		c1.15-2.2,2.17-4.67,2.67-7.12c0.59-3.14,3.61-10.79,5.13-17.59c0.8-3.27,5.15-1.56,4.5,0.55
		C429.36,235.04,430.07,232.48,429.24,235.14"/>
	<path class="st2" d="M297.87,275.95c-2.34,0.01-4.51-1.38-6-2.83c-0.88,3.2-1.7,6.01-3.06,9.08c-3.24,7.37-6.61,11.81-10.29,12
		c4.38-5.47,8.36-17.22,9.19-21.85c0.21-1.26,0.67-3.55,1.57-4.32c-0.62-0.86-1-2.01,0.67-3.16c1.57-1.67,6.25-3.65,10.34-3.99
		c5.14-0.41,8.35,3.21,7.53,7.53C307.2,271.85,303.56,276.05,297.87,275.95 M299.06,265.05c-2.25,0.44-5.68,2.63-7.1,3.89
		c1.57,1.88,4.61,4.25,6.82,3.96c3.74-0.59,4.95-2.94,4.89-4.82C303.63,266.34,301.53,264.56,299.06,265.05z"/>
	<path class="st2" d="M317.4,262.84c-1.32,1.96-2.02,4.8-4.65,6.1c-2.9,1.49-2.21-2.25-1.05-3.36c0.95-1,2.19-4.69,2.29-5.84
		l0.11-0.62c0.19-1.47,1.9-3.73,4.1-2.84c0.66,0.27,1.52,0.94,1.19,2.05C319.02,259.62,318.45,261.15,317.4,262.84"/>
	<path class="st2" d="M331.99,267.64c-1.55,1.95-3.23,3.59-4.74,4.76c-1.83,1.32-2.56,0.42-1.37-1.13
		c3.94-5.05,7.67-12.37,10.29-19.24c0.95-2.53,1.48-6.01,0.58-6.88c-0.99-0.85-2.86,1.22-3.79,2.82c-4.44,6.58-7.01,15.9-8.48,22.51
		c-1.39,6.59,2.61,8.23,5.52,6.22c0.92-0.57,1.72-1.89,2.33-2.84c1.87-3.19,5.08,0.45,4.07,2.57c-0.86,2.01-5.71,6.62-10.2,6.16
		c-6.48-0.74-6.88-7.37-6.18-11.9c1.33-8.62,4.25-17.24,7.73-21.96c6.37-8.85,11.61-8.93,13.6-6.71c1.23,1.33,1.3,3.35,1.13,4.91
		C341.62,254.28,336.54,261.73,331.99,267.64"/>
	<path class="st2" d="M349.45,256.48c-1.37,1.93-2.15,4.75-4.83,5.96c-2.94,1.41-2.14-2.31-0.95-3.38c0.98-0.97,2.32-4.62,2.45-5.77
		l0.13-0.62c0.23-1.47,2.01-3.68,4.18-2.71c0.64,0.28,1.49,0.97,1.13,2.08C351.16,253.31,350.55,254.82,349.45,256.48"/>
	<path class="st2" d="M378.32,265.89c-2.17,1.29-4.14-0.29-2.44-1.75c2.53-2.15,5.91-6.03,6.28-10.78c0.11-1.66-0.81-2.6-1.87-2.78
		c-2.13-0.36-4.1,0.16-5.84,1.99c-1.13,1.24-3.15,0.5-2.17-1.4c1.48-2.86,6.53-5.14,9.4-4.85c5.07,0.56,5.9,4.65,5.39,7.47
		C386.43,257.59,383.28,262.8,378.32,265.89"/>
	<path class="st2" d="M419.95,233.76c-3.31,6.68-6.54,14.28-9.42,21.08c-0.71,1.69-1.49,3.28-2.73,4.59
		c-4.89,5.2-8.5-7.41-9.23-10.82l-1.62,3.8c-0.62,1.51-3.57,7.64-5.96,12.19c-2.18,4.1-5,8.79-7.81,10.57
		c-2,1.37-3.18,0.54-1.73-1.29c1.83-2.38,3.38-4.9,5.36-9.33c2.91-6.56,5.87-13.37,9.07-20.38c0.55-1.33,0.96-2.56,2.06-3.51
		c1.27-1.05,3.5-0.82,4.03,1.26c0.64,2.49,0.39,5.24,1.05,7.91c0.15,0.74,0.77,5.79,1.72,5.87c0.5-0.04,0.32-0.11,0.89-1.44
		c0.82-2.29,2.31-5.57,3.48-7.71c3.27-6.08,6.43-12.66,8.37-15.55c1.22-1.64,2.22-1.91,2.71-1.1
		C420.88,230.79,420.38,232.78,419.95,233.76"/>
	<path class="st2" d="M377.29,276.96c-0.29-0.14-0.42-0.28-0.93,0.33c-10.45,12.19-16.82,14.55-22.03,14.2
		c-6.31-0.43-7.57-2.78-7.64-7.73c-0.01-0.32,0.09-1.44,0.15-1.71c0.86-3.83,1.04-5.69,4.43-10.23c1.08-1.43,6.84-7.51,6.21-7.08
		c1.15,1.28,3.72,2.06,5.3,2.15c2.27,0.15,6.89-1.73,6.42-5.33c-0.21-1.62-3.06-3.87-5.96-3.72c-1.26,0.09-1.19,0.08-2.2,0.37
		c0.14-0.62,0.23-1.08,0.58-1.87c1.73-4.49,6.41-8.78,8.95-9.94c0.97-0.64,0.65-3-2.33-1.79c-6.18,2.54-11.46,9.67-11.95,15.58
		c-2.26,1.64-6.39,4.98-10.24,11.61c-1.61,2.78-2.64,5.52-3.24,7.87c-0.35,1.07-0.64,2.56-0.82,4.62
		c-0.59,7.11,4.08,10.3,11.02,10.9c7.41,0.64,17.17-3.2,24.38-17.33C377.4,277.85,377.7,277.16,377.29,276.96 M366.29,262.77
		c-0.03,0.37-1.05,1.11-2.55,1.08c-0.16-0.06-1.53-0.25-2.47-1.7C362.98,260.95,366.33,261.34,366.29,262.77z"/>
</g>
<g>
	<path class="st2" d="M492.59,239.4c-1.59,1.92-3.31,3.52-4.84,4.66c-1.85,1.28-2.57,0.37-1.35-1.16c4.04-4.96,7.94-12.2,10.7-19.02
		c1.01-2.51,1.61-5.98,0.73-6.87c-0.97-0.87-2.89,1.16-3.85,2.74c-4.58,6.48-7.34,15.75-8.95,22.33c-1.53,6.56,2.44,8.28,5.38,6.34
		c0.93-0.55,1.76-1.85,2.39-2.79c1.94-3.15,5.07,0.56,4.01,2.65c-0.9,1.99-5.85,6.49-10.33,5.94c-6.47-0.88-6.72-7.52-5.92-12.03
		c1.51-8.59,4.62-17.14,8.2-21.79c6.56-8.71,11.8-8.68,13.74-6.42c1.2,1.35,1.23,3.38,1.02,4.93
		C502.5,226.25,497.27,233.59,492.59,239.4"/>
	<path class="st2" d="M510.29,228.62c-1.41,1.9-2.25,4.7-4.96,5.86c-2.97,1.35-2.1-2.35-0.87-3.4c1-0.95,2.42-4.57,2.57-5.72
		l0.15-0.62c0.26-1.46,2.09-3.63,4.23-2.62c0.63,0.3,1.47,1,1.09,2.1C512.06,225.48,511.42,226.98,510.29,228.62"/>
	<path class="st2" d="M538.95,238.64c-2.2,1.24-4.13-0.38-2.4-1.8c2.58-2.09,6.04-5.9,6.51-10.64c0.15-1.66-0.75-2.62-1.81-2.82
		c-2.13-0.41-4.1,0.07-5.88,1.87c-1.16,1.22-3.16,0.43-2.14-1.45c1.54-2.83,6.64-5,9.5-4.65c5.06,0.67,5.8,4.78,5.22,7.59
		C547.24,230.52,543.98,235.65,538.95,238.64"/>
	<path class="st2" d="M581.26,207.4c-3.45,6.61-6.84,14.13-9.86,20.88c-0.74,1.68-1.56,3.25-2.83,4.53c-5,5.1-8.34-7.59-8.99-11.02
		l-1.7,3.76c-0.65,1.5-3.73,7.56-6.22,12.06c-2.27,4.06-5.18,8.68-8.04,10.4c-2.03,1.33-3.19,0.47-1.7-1.33
		c1.88-2.34,3.49-4.83,5.56-9.21c3.04-6.49,6.15-13.25,9.5-20.18c0.58-1.32,1.01-2.54,2.13-3.46c1.29-1.03,3.52-0.75,4,1.34
		c0.59,2.51,0.28,5.25,0.88,7.93c0.13,0.75,0.65,5.8,1.6,5.91c0.5-0.03,0.33-0.11,0.92-1.42c0.87-2.27,2.43-5.52,3.65-7.63
		c3.4-6.01,6.7-12.52,8.7-15.37c1.26-1.61,2.26-1.86,2.74-1.04C582.25,204.45,581.71,206.44,581.26,207.4"/>
	<path class="st2" d="M537.68,249.69c-0.29-0.14-0.41-0.29-0.94,0.31c-10.71,11.97-17.13,14.19-22.33,13.73
		c-6.3-0.56-7.51-2.94-7.47-7.89c0-0.32,0.12-1.44,0.19-1.71c0.94-3.81,1.16-5.67,4.65-10.13c1.11-1.41,7-7.37,6.36-6.95
		c1.12,1.3,3.67,2.14,5.26,2.27c2.27,0.2,6.93-1.58,6.53-5.2c-0.18-1.63-2.98-3.94-5.88-3.84c-1.26,0.06-1.19,0.05-2.2,0.32
		c0.15-0.62,0.26-1.07,0.62-1.86c1.82-4.45,6.59-8.64,9.16-9.75c0.98-0.62,0.72-2.99-2.3-1.84c-6.23,2.41-11.66,9.43-12.28,15.32
		c-2.29,1.6-6.49,4.84-10.48,11.39c-1.67,2.74-2.76,5.46-3.41,7.8c-0.38,1.06-0.7,2.55-0.91,4.6c-0.75,7.09,3.86,10.38,10.78,11.13
		c7.39,0.8,17.23-2.83,24.74-16.81C537.77,250.58,538.09,249.89,537.68,249.69 M526.99,235.26c-0.04,0.37-1.07,1.08-2.58,1.02
		c-0.16-0.06-1.53-0.28-2.43-1.75C523.72,233.38,527.06,233.83,526.99,235.26z"/>
	<path class="st2" d="M465.5,248.24c-1.1,1.42-3.01,2.67-4.8,2.58c-1.22,0-1.26-0.76-0.02-1.6c2.4-1.75,2.76-4.28,2.34-6.62
		c-0.13-0.82-0.89-2.92-1.89-3.89c-1.84-1.84-3.7-0.38-3.99,0.61c-1.22,4.29-3.46,10.05-6.06,13.45c-3.34,4.36-6.03,8.01-11.79,9.82
		c-2.34,0.74-5.03,0.72-6.75-0.99c-1.16-1.24,0.11-2.02,1.71-1.42c0.9,0.24,2.77,0.38,4.71-0.41c5.21-2.14,8.49-6.78,11.5-14.04
		c0.96-2.31,1.68-4.63,2.47-6.97c0.85-2.43,2.1-3.89,5-4.85c4.96-1.54,7.98,1.62,8.96,5.58C467.67,242.5,467.18,246.07,465.5,248.24
		"/>
	<path class="st2" d="M478.55,230.85c-1.85,5.98-4.94,20.22-8.36,23.98c-1.09,1.24-3.44,0.92-2.79-0.9
		c1.09-2.23,2.05-4.73,2.48-7.19c0.51-3.15,3.33-10.88,4.67-17.72c0.71-3.29,5.1-1.69,4.52,0.43
		C478.67,230.74,479.31,228.17,478.55,230.85"/>
</g>
</svg>
